<?xml version="1.0" encoding="UTF-8" standalone="no"?><svg xmlns="http://www.w3.org/2000/svg" xmlns:xlink="http://www.w3.org/1999/xlink" contentScriptType="application/ecmascript" contentStyleType="text/css" height="319px" preserveAspectRatio="none" style="width:458px;height:319px;" version="1.1" viewBox="0 0 458 319" width="458px" zoomAndPan="magnify"><defs><filter height="300%" id="fyv2xjp2ovklu" width="300%" x="-1" y="-1"><feGaussianBlur result="blurOut" stdDeviation="2.0"/><feColorMatrix in="blurOut" result="blurOut2" type="matrix" values="0 0 0 0 0 0 0 0 0 0 0 0 0 0 0 0 0 0 .4 0"/><feOffset dx="4.0" dy="4.0" in="blurOut2" result="blurOut3"/><feBlend in="SourceGraphic" in2="blurOut3" mode="normal"/></filter></defs><g><!--MD5=[96abc7baf9ce8e72052e71dbfb46c1fe]
class EmailSystemApi1--><rect fill="#FEFECE" filter="url(#fyv2xjp2ovklu)" height="60.8047" id="EmailSystemApi1" style="stroke: #A80036; stroke-width: 1.5;" width="203" x="6" y="248"/><ellipse cx="52.25" cy="264" fill="#ADD1B2" rx="11" ry="11" style="stroke: #A80036; stroke-width: 1.0;"/><path d="M54.5938,259.6719 C53.6563,259.2344 53.0625,259.0938 52.1875,259.0938 C49.5625,259.0938 47.5625,261.1719 47.5625,263.8906 L47.5625,265.0156 C47.5625,267.5938 49.6719,269.4844 52.5625,269.4844 C53.7813,269.4844 54.9375,269.1875 55.6875,268.6406 C56.2656,268.2344 56.5938,267.7813 56.5938,267.3906 C56.5938,266.9375 56.2031,266.5469 55.7344,266.5469 C55.5156,266.5469 55.3125,266.625 55.125,266.8125 C54.6719,267.2969 54.6719,267.2969 54.4844,267.3906 C54.0625,267.6563 53.375,267.7813 52.6094,267.7813 C50.5625,267.7813 49.2656,266.6875 49.2656,264.9844 L49.2656,263.8906 C49.2656,262.1094 50.5156,260.7969 52.25,260.7969 C52.8281,260.7969 53.4375,260.9531 53.9063,261.2031 C54.3906,261.4844 54.5625,261.7031 54.6563,262.1094 C54.7188,262.5156 54.75,262.6406 54.8906,262.7656 C55.0313,262.9063 55.2656,263.0156 55.4844,263.0156 C55.75,263.0156 56.0156,262.875 56.1875,262.6563 C56.2969,262.5 56.3281,262.3125 56.3281,261.8906 L56.3281,260.4688 C56.3281,260.0313 56.3125,259.9063 56.2188,259.75 C56.0625,259.4844 55.7813,259.3438 55.4844,259.3438 C55.1875,259.3438 54.9844,259.4375 54.7656,259.75 L54.5938,259.6719 Z "/><text fill="#000000" font-family="sans-serif" font-size="12" lengthAdjust="spacingAndGlyphs" textLength="102" x="72.75" y="268.1543">EmailSystemApi1</text><line style="stroke: #A80036; stroke-width: 1.5;" x1="7" x2="208" y1="280" y2="280"/><line style="stroke: #A80036; stroke-width: 1.5;" x1="7" x2="208" y1="288" y2="288"/><text fill="#000000" font-family="sans-serif" font-size="11" lengthAdjust="spacingAndGlyphs" textLength="191" x="12" y="302.2104">+sendEmail(email, subject, body)</text><!--MD5=[e48c929cbfedb5a6637c6fa9598bcaad]
class EmailSystemAdapter1--><rect fill="#FEFECE" filter="url(#fyv2xjp2ovklu)" height="60.8047" id="EmailSystemAdapter1" style="stroke: #A80036; stroke-width: 1.5;" width="203" x="6" y="127"/><ellipse cx="39" cy="143" fill="#ADD1B2" rx="11" ry="11" style="stroke: #A80036; stroke-width: 1.0;"/><path d="M41.3438,138.6719 C40.4063,138.2344 39.8125,138.0938 38.9375,138.0938 C36.3125,138.0938 34.3125,140.1719 34.3125,142.8906 L34.3125,144.0156 C34.3125,146.5938 36.4219,148.4844 39.3125,148.4844 C40.5313,148.4844 41.6875,148.1875 42.4375,147.6406 C43.0156,147.2344 43.3438,146.7813 43.3438,146.3906 C43.3438,145.9375 42.9531,145.5469 42.4844,145.5469 C42.2656,145.5469 42.0625,145.625 41.875,145.8125 C41.4219,146.2969 41.4219,146.2969 41.2344,146.3906 C40.8125,146.6563 40.125,146.7813 39.3594,146.7813 C37.3125,146.7813 36.0156,145.6875 36.0156,143.9844 L36.0156,142.8906 C36.0156,141.1094 37.2656,139.7969 39,139.7969 C39.5781,139.7969 40.1875,139.9531 40.6563,140.2031 C41.1406,140.4844 41.3125,140.7031 41.4063,141.1094 C41.4688,141.5156 41.5,141.6406 41.6406,141.7656 C41.7813,141.9063 42.0156,142.0156 42.2344,142.0156 C42.5,142.0156 42.7656,141.875 42.9375,141.6563 C43.0469,141.5 43.0781,141.3125 43.0781,140.8906 L43.0781,139.4688 C43.0781,139.0313 43.0625,138.9063 42.9688,138.75 C42.8125,138.4844 42.5313,138.3438 42.2344,138.3438 C41.9375,138.3438 41.7344,138.4375 41.5156,138.75 L41.3438,138.6719 Z "/><text fill="#000000" font-family="sans-serif" font-size="12" lengthAdjust="spacingAndGlyphs" textLength="131" x="57" y="147.1543">EmailSystemAdapter1</text><line style="stroke: #A80036; stroke-width: 1.5;" x1="7" x2="208" y1="159" y2="159"/><line style="stroke: #A80036; stroke-width: 1.5;" x1="7" x2="208" y1="167" y2="167"/><text fill="#000000" font-family="sans-serif" font-size="11" lengthAdjust="spacingAndGlyphs" textLength="191" x="12" y="181.2104">+sendEmail(email, subject, body)</text><!--MD5=[6adbfe59200e6f5daa5a6cc2a4a950e1]
class EmailSystemAdapter2--><rect fill="#FEFECE" filter="url(#fyv2xjp2ovklu)" height="60.8047" id="EmailSystemAdapter2" style="stroke: #A80036; stroke-width: 1.5;" width="203" x="244" y="127"/><ellipse cx="276.55" cy="143" fill="#ADD1B2" rx="11" ry="11" style="stroke: #A80036; stroke-width: 1.0;"/><path d="M278.8938,138.6719 C277.9563,138.2344 277.3625,138.0938 276.4875,138.0938 C273.8625,138.0938 271.8625,140.1719 271.8625,142.8906 L271.8625,144.0156 C271.8625,146.5938 273.9719,148.4844 276.8625,148.4844 C278.0813,148.4844 279.2375,148.1875 279.9875,147.6406 C280.5656,147.2344 280.8938,146.7813 280.8938,146.3906 C280.8938,145.9375 280.5031,145.5469 280.0344,145.5469 C279.8156,145.5469 279.6125,145.625 279.425,145.8125 C278.9719,146.2969 278.9719,146.2969 278.7844,146.3906 C278.3625,146.6563 277.675,146.7813 276.9094,146.7813 C274.8625,146.7813 273.5656,145.6875 273.5656,143.9844 L273.5656,142.8906 C273.5656,141.1094 274.8156,139.7969 276.55,139.7969 C277.1281,139.7969 277.7375,139.9531 278.2063,140.2031 C278.6906,140.4844 278.8625,140.7031 278.9563,141.1094 C279.0188,141.5156 279.05,141.6406 279.1906,141.7656 C279.3313,141.9063 279.5656,142.0156 279.7844,142.0156 C280.05,142.0156 280.3156,141.875 280.4875,141.6563 C280.5969,141.5 280.6281,141.3125 280.6281,140.8906 L280.6281,139.4688 C280.6281,139.0313 280.6125,138.9063 280.5188,138.75 C280.3625,138.4844 280.0813,138.3438 279.7844,138.3438 C279.4875,138.3438 279.2844,138.4375 279.0656,138.75 L278.8938,138.6719 Z "/><text fill="#000000" font-family="sans-serif" font-size="12" lengthAdjust="spacingAndGlyphs" textLength="132" x="294.45" y="147.1543">EmailSystemAdapter2</text><line style="stroke: #A80036; stroke-width: 1.5;" x1="245" x2="446" y1="159" y2="159"/><line style="stroke: #A80036; stroke-width: 1.5;" x1="245" x2="446" y1="167" y2="167"/><text fill="#000000" font-family="sans-serif" font-size="11" lengthAdjust="spacingAndGlyphs" textLength="191" x="250" y="181.2104">+sendEmail(email, subject, body)</text><!--MD5=[37e2bf93b6e1c803faf1c4be12a2822d]
class EmailSystem--><rect fill="#FEFECE" filter="url(#fyv2xjp2ovklu)" height="60.8047" id="EmailSystem" style="stroke: #A80036; stroke-width: 1.5;" width="203" x="125" y="6"/><ellipse cx="183.25" cy="22" fill="#B4A7E5" rx="11" ry="11" style="stroke: #A80036; stroke-width: 1.0;"/><path d="M184.2031,18.7813 L185.9219,18.7813 C186.3125,18.7813 186.5,18.75 186.625,18.6719 C186.8906,18.5156 187.0313,18.2344 187.0313,17.9375 C187.0313,17.6719 186.9219,17.4063 186.6875,17.2344 C186.5156,17.125 186.375,17.0938 185.9219,17.0938 L180.7813,17.0938 C180.3438,17.0938 180.2188,17.1094 180.0625,17.2031 C179.8125,17.3594 179.6563,17.6563 179.6563,17.9375 C179.6563,18.2188 179.7969,18.4688 180.0156,18.6406 C180.1719,18.75 180.3594,18.7813 180.7813,18.7813 L182.5,18.7813 L182.5,25.2969 L180.7813,25.2969 C180.3438,25.2969 180.2188,25.3125 180.0625,25.4219 C179.8125,25.5781 179.6563,25.8594 179.6563,26.1563 C179.6563,26.4063 179.7969,26.6719 180.0156,26.8281 C180.1719,26.9531 180.375,27 180.7813,27 L185.9219,27 C186.6719,27 187.0313,26.7188 187.0313,26.1563 C187.0313,25.875 186.9219,25.625 186.6875,25.4531 C186.5156,25.3281 186.375,25.2969 185.9219,25.2969 L184.2031,25.2969 L184.2031,18.7813 Z "/><text fill="#000000" font-family="sans-serif" font-size="12" font-style="italic" lengthAdjust="spacingAndGlyphs" textLength="78" x="203.75" y="26.1543">EmailSystem</text><line style="stroke: #A80036; stroke-width: 1.5;" x1="126" x2="327" y1="38" y2="38"/><line style="stroke: #A80036; stroke-width: 1.5;" x1="126" x2="327" y1="46" y2="46"/><text fill="#000000" font-family="sans-serif" font-size="11" lengthAdjust="spacingAndGlyphs" textLength="191" x="131" y="60.2104">+sendEmail(email, subject, body)</text><!--MD5=[016f0b0c45a6638cf570e5502bbfe17a]
link EmailSystem to EmailSystemAdapter1--><path d="M196.778,67.222 C179.882,84.118 158.669,105.331 141.161,122.839 " fill="none" id="EmailSystem-&gt;EmailSystemAdapter1" style="stroke: #A80036; stroke-width: 1.0;"/><polygon fill="#A80036" points="137.255,126.745,146.4474,123.2095,140.7905,123.2095,140.7905,117.5526,137.255,126.745" style="stroke: #A80036; stroke-width: 1.0;"/><text fill="#000000" font-family="sans-serif" font-size="13" lengthAdjust="spacingAndGlyphs" textLength="8" x="182.139" y="86.8462">1</text><ellipse cx="125.7263" cy="111.5216" fill="#000000" rx="2.5" ry="2.5" style="stroke: #000000; stroke-width: 0.0;"/><text fill="#000000" font-family="sans-serif" font-size="13" lengthAdjust="spacingAndGlyphs" textLength="8" x="133.2263" y="115.9556">1</text><!--MD5=[e3ed311344d5f800e2fb124ac4124b02]
link EmailSystem to EmailSystemAdapter2--><path d="M256.222,67.222 C273.118,84.118 294.331,105.331 311.839,122.839 " fill="none" id="EmailSystem-&gt;EmailSystemAdapter2" style="stroke: #A80036; stroke-width: 1.0;"/><polygon fill="#A80036" points="315.745,126.745,312.2095,117.5526,312.2095,123.2095,306.5526,123.2095,315.745,126.745" style="stroke: #A80036; stroke-width: 1.0;"/><text fill="#000000" font-family="sans-serif" font-size="13" lengthAdjust="spacingAndGlyphs" textLength="8" x="253.286" y="86.8462">1</text><ellipse cx="291.9424" cy="111.5216" fill="#000000" rx="2.5" ry="2.5" style="stroke: #000000; stroke-width: 0.0;"/><text fill="#000000" font-family="sans-serif" font-size="13" lengthAdjust="spacingAndGlyphs" textLength="8" x="299.4424" y="115.9556">1</text><!--MD5=[90461b0c94dcf943e3661a7764625136]
link EmailSystemAdapter1 to EmailSystemApi1--><path d="M107.5,188.222 C107.5,204.692 107.5,225.2642 107.5,242.5082 " fill="none" id="EmailSystemAdapter1-&gt;EmailSystemApi1" style="stroke: #A80036; stroke-width: 1.0;"/><polygon fill="#A80036" points="107.5,247.7447,111.5,238.7447,107.5,242.7447,103.5,238.7447,107.5,247.7447" style="stroke: #A80036; stroke-width: 1.0;"/><text fill="#000000" font-family="sans-serif" font-size="13" lengthAdjust="spacingAndGlyphs" textLength="8" x="98.7125" y="207.8462">1</text><ellipse cx="89.8344" cy="232.5212" fill="#000000" rx="2.5" ry="2.5" style="stroke: #000000; stroke-width: 0.0;"/><text fill="#000000" font-family="sans-serif" font-size="13" lengthAdjust="spacingAndGlyphs" textLength="8" x="97.3344" y="236.9553">1</text><!--MD5=[a027b2bc86b99c3ab847f900ea16e42a]
@startuml
skinparam classAttributeIconSize 0

class EmailSystemApi1 {
  +sendEmail(email, subject, body)
}
class EmailSystemAdapter1 {
  +sendEmail(email, subject, body)
}
class EmailSystemAdapter2 {
  +sendEmail(email, subject, body)
}

Interface EmailSystem {
  +sendEmail(email, subject, body)
}
 


EmailSystem "1" - -> "*1" EmailSystemAdapter1 
EmailSystem "1" - -> "*1" EmailSystemAdapter2
EmailSystemAdapter1 "1" - -> "*1" EmailSystemApi1
@enduml

PlantUML version 1.2020.12(Sat Jun 06 10:54:15 UTC 2020)
(GPL source distribution)
Java Runtime: Java(TM) SE Runtime Environment
JVM: Java HotSpot(TM) 64-Bit Server VM
Default Encoding: UTF-8
Language: en
Country: US
--></g></svg>