<?xml version="1.0" encoding="UTF-8" standalone="no"?><svg xmlns="http://www.w3.org/2000/svg" xmlns:xlink="http://www.w3.org/1999/xlink" contentScriptType="application/ecmascript" contentStyleType="text/css" height="1012px" preserveAspectRatio="none" style="width:761px;height:1012px;" version="1.1" viewBox="0 0 761 1012" width="761px" zoomAndPan="magnify"><defs><filter height="300%" id="fu8rtj3tp2led" width="300%" x="-1" y="-1"><feGaussianBlur result="blurOut" stdDeviation="2.0"/><feColorMatrix in="blurOut" result="blurOut2" type="matrix" values="0 0 0 0 0 0 0 0 0 0 0 0 0 0 0 0 0 0 .4 0"/><feOffset dx="4.0" dy="4.0" in="blurOut2" result="blurOut3"/><feBlend in="SourceGraphic" in2="blurOut3" mode="normal"/></filter></defs><g><!--MD5=[f7516faab0ca4196ed3ab4302ea8d86b]
class ScheduledMakePayments--><rect fill="#FEFECE" filter="url(#fu8rtj3tp2led)" height="48" id="ScheduledMakePayments" style="stroke: #A80036; stroke-width: 1.5;" width="185" x="175.5" y="394"/><ellipse cx="190.5" cy="410" fill="#ADD1B2" rx="11" ry="11" style="stroke: #A80036; stroke-width: 1.0;"/><path d="M192.8438,405.6719 C191.9063,405.2344 191.3125,405.0938 190.4375,405.0938 C187.8125,405.0938 185.8125,407.1719 185.8125,409.8906 L185.8125,411.0156 C185.8125,413.5938 187.9219,415.4844 190.8125,415.4844 C192.0313,415.4844 193.1875,415.1875 193.9375,414.6406 C194.5156,414.2344 194.8438,413.7813 194.8438,413.3906 C194.8438,412.9375 194.4531,412.5469 193.9844,412.5469 C193.7656,412.5469 193.5625,412.625 193.375,412.8125 C192.9219,413.2969 192.9219,413.2969 192.7344,413.3906 C192.3125,413.6563 191.625,413.7813 190.8594,413.7813 C188.8125,413.7813 187.5156,412.6875 187.5156,410.9844 L187.5156,409.8906 C187.5156,408.1094 188.7656,406.7969 190.5,406.7969 C191.0781,406.7969 191.6875,406.9531 192.1563,407.2031 C192.6406,407.4844 192.8125,407.7031 192.9063,408.1094 C192.9688,408.5156 193,408.6406 193.1406,408.7656 C193.2813,408.9063 193.5156,409.0156 193.7344,409.0156 C194,409.0156 194.2656,408.875 194.4375,408.6563 C194.5469,408.5 194.5781,408.3125 194.5781,407.8906 L194.5781,406.4688 C194.5781,406.0313 194.5625,405.9063 194.4688,405.75 C194.3125,405.4844 194.0313,405.3438 193.7344,405.3438 C193.4375,405.3438 193.2344,405.4375 193.0156,405.75 L192.8438,405.6719 Z "/><text fill="#000000" font-family="sans-serif" font-size="12" lengthAdjust="spacingAndGlyphs" textLength="153" x="204.5" y="414.1543">ScheduledMakePayments</text><line style="stroke: #A80036; stroke-width: 1.5;" x1="176.5" x2="359.5" y1="426" y2="426"/><line style="stroke: #A80036; stroke-width: 1.5;" x1="176.5" x2="359.5" y1="434" y2="434"/><!--MD5=[b5c832318dfa6020bf49395d5adeec28]
class MakePayments--><rect fill="#FEFECE" filter="url(#fu8rtj3tp2led)" height="86.4141" id="MakePayments" style="stroke: #A80036; stroke-width: 1.5;" width="147" x="194.5" y="502"/><ellipse cx="221.2" cy="518" fill="#ADD1B2" rx="11" ry="11" style="stroke: #A80036; stroke-width: 1.0;"/><path d="M223.5438,513.6719 C222.6063,513.2344 222.0125,513.0938 221.1375,513.0938 C218.5125,513.0938 216.5125,515.1719 216.5125,517.8906 L216.5125,519.0156 C216.5125,521.5938 218.6219,523.4844 221.5125,523.4844 C222.7313,523.4844 223.8875,523.1875 224.6375,522.6406 C225.2156,522.2344 225.5438,521.7813 225.5438,521.3906 C225.5438,520.9375 225.1531,520.5469 224.6844,520.5469 C224.4656,520.5469 224.2625,520.625 224.075,520.8125 C223.6219,521.2969 223.6219,521.2969 223.4344,521.3906 C223.0125,521.6563 222.325,521.7813 221.5594,521.7813 C219.5125,521.7813 218.2156,520.6875 218.2156,518.9844 L218.2156,517.8906 C218.2156,516.1094 219.4656,514.7969 221.2,514.7969 C221.7781,514.7969 222.3875,514.9531 222.8563,515.2031 C223.3406,515.4844 223.5125,515.7031 223.6063,516.1094 C223.6688,516.5156 223.7,516.6406 223.8406,516.7656 C223.9813,516.9063 224.2156,517.0156 224.4344,517.0156 C224.7,517.0156 224.9656,516.875 225.1375,516.6563 C225.2469,516.5 225.2781,516.3125 225.2781,515.8906 L225.2781,514.4688 C225.2781,514.0313 225.2625,513.9063 225.1688,513.75 C225.0125,513.4844 224.7313,513.3438 224.4344,513.3438 C224.1375,513.3438 223.9344,513.4375 223.7156,513.75 L223.5438,513.6719 Z "/><text fill="#000000" font-family="sans-serif" font-size="12" lengthAdjust="spacingAndGlyphs" textLength="89" x="237.8" y="522.1543">MakePayments</text><line style="stroke: #A80036; stroke-width: 1.5;" x1="195.5" x2="340.5" y1="534" y2="534"/><line style="stroke: #A80036; stroke-width: 1.5;" x1="195.5" x2="340.5" y1="542" y2="542"/><text fill="#000000" font-family="sans-serif" font-size="11" lengthAdjust="spacingAndGlyphs" textLength="105" x="200.5" y="556.2104">+makePayments()</text><text fill="#000000" font-family="sans-serif" font-size="11" lengthAdjust="spacingAndGlyphs" textLength="135" x="200.5" y="569.0151">+writePaymentsToFile()</text><text fill="#000000" font-family="sans-serif" font-size="11" lengthAdjust="spacingAndGlyphs" textLength="111" x="200.5" y="581.8198">+registerPayment()</text><!--MD5=[711adbf72bf0e9660996dfbc938afd14]
class InvoiceRegistry--><rect fill="#FEFECE" filter="url(#fu8rtj3tp2led)" height="99.2188" id="InvoiceRegistry" style="stroke: #A80036; stroke-width: 1.5;" width="174" x="181" y="648"/><ellipse cx="218.5" cy="664" fill="#ADD1B2" rx="11" ry="11" style="stroke: #A80036; stroke-width: 1.0;"/><path d="M220.8438,659.6719 C219.9063,659.2344 219.3125,659.0938 218.4375,659.0938 C215.8125,659.0938 213.8125,661.1719 213.8125,663.8906 L213.8125,665.0156 C213.8125,667.5938 215.9219,669.4844 218.8125,669.4844 C220.0313,669.4844 221.1875,669.1875 221.9375,668.6406 C222.5156,668.2344 222.8438,667.7813 222.8438,667.3906 C222.8438,666.9375 222.4531,666.5469 221.9844,666.5469 C221.7656,666.5469 221.5625,666.625 221.375,666.8125 C220.9219,667.2969 220.9219,667.2969 220.7344,667.3906 C220.3125,667.6563 219.625,667.7813 218.8594,667.7813 C216.8125,667.7813 215.5156,666.6875 215.5156,664.9844 L215.5156,663.8906 C215.5156,662.1094 216.7656,660.7969 218.5,660.7969 C219.0781,660.7969 219.6875,660.9531 220.1563,661.2031 C220.6406,661.4844 220.8125,661.7031 220.9063,662.1094 C220.9688,662.5156 221,662.6406 221.1406,662.7656 C221.2813,662.9063 221.5156,663.0156 221.7344,663.0156 C222,663.0156 222.2656,662.875 222.4375,662.6563 C222.5469,662.5 222.5781,662.3125 222.5781,661.8906 L222.5781,660.4688 C222.5781,660.0313 222.5625,659.9063 222.4688,659.75 C222.3125,659.4844 222.0313,659.3438 221.7344,659.3438 C221.4375,659.3438 221.2344,659.4375 221.0156,659.75 L220.8438,659.6719 Z "/><text fill="#000000" font-family="sans-serif" font-size="12" lengthAdjust="spacingAndGlyphs" textLength="92" x="237.5" y="668.1543">InvoiceRegistry</text><line style="stroke: #A80036; stroke-width: 1.5;" x1="182" x2="354" y1="680" y2="680"/><line style="stroke: #A80036; stroke-width: 1.5;" x1="182" x2="354" y1="688" y2="688"/><text fill="#000000" font-family="sans-serif" font-size="11" lengthAdjust="spacingAndGlyphs" textLength="129" x="187" y="702.2104">+sendInvoicesByMail()</text><text fill="#000000" font-family="sans-serif" font-size="11" lengthAdjust="spacingAndGlyphs" textLength="122" x="187" y="715.0151">+addEntryToInvoice()</text><text fill="#000000" font-family="sans-serif" font-size="11" lengthAdjust="spacingAndGlyphs" textLength="162" x="187" y="727.8198">+hasInvoiceWithfreelancer()</text><text fill="#000000" font-family="sans-serif" font-size="11" lengthAdjust="spacingAndGlyphs" textLength="79" x="187" y="740.6245">+addInvoice()</text><!--MD5=[894442645724153f40a9f7a43026dbfc]
class Invoice--><rect fill="#FEFECE" filter="url(#fu8rtj3tp2led)" height="73.6094" id="Invoice" style="stroke: #A80036; stroke-width: 1.5;" width="194" x="243" y="807"/><ellipse cx="314.25" cy="823" fill="#ADD1B2" rx="11" ry="11" style="stroke: #A80036; stroke-width: 1.0;"/><path d="M316.5938,818.6719 C315.6563,818.2344 315.0625,818.0938 314.1875,818.0938 C311.5625,818.0938 309.5625,820.1719 309.5625,822.8906 L309.5625,824.0156 C309.5625,826.5938 311.6719,828.4844 314.5625,828.4844 C315.7813,828.4844 316.9375,828.1875 317.6875,827.6406 C318.2656,827.2344 318.5938,826.7813 318.5938,826.3906 C318.5938,825.9375 318.2031,825.5469 317.7344,825.5469 C317.5156,825.5469 317.3125,825.625 317.125,825.8125 C316.6719,826.2969 316.6719,826.2969 316.4844,826.3906 C316.0625,826.6563 315.375,826.7813 314.6094,826.7813 C312.5625,826.7813 311.2656,825.6875 311.2656,823.9844 L311.2656,822.8906 C311.2656,821.1094 312.5156,819.7969 314.25,819.7969 C314.8281,819.7969 315.4375,819.9531 315.9063,820.2031 C316.3906,820.4844 316.5625,820.7031 316.6563,821.1094 C316.7188,821.5156 316.75,821.6406 316.8906,821.7656 C317.0313,821.9063 317.2656,822.0156 317.4844,822.0156 C317.75,822.0156 318.0156,821.875 318.1875,821.6563 C318.2969,821.5 318.3281,821.3125 318.3281,820.8906 L318.3281,819.4688 C318.3281,819.0313 318.3125,818.9063 318.2188,818.75 C318.0625,818.4844 317.7813,818.3438 317.4844,818.3438 C317.1875,818.3438 316.9844,818.4375 316.7656,818.75 L316.5938,818.6719 Z "/><text fill="#000000" font-family="sans-serif" font-size="12" lengthAdjust="spacingAndGlyphs" textLength="43" x="334.75" y="827.1543">Invoice</text><line style="stroke: #A80036; stroke-width: 1.5;" x1="244" x2="436" y1="839" y2="839"/><text fill="#000000" font-family="sans-serif" font-size="11" lengthAdjust="spacingAndGlyphs" textLength="182" x="249" y="853.2104">List&lt;task, Payment&gt; listOfTasks</text><line style="stroke: #A80036; stroke-width: 1.5;" x1="244" x2="436" y1="859.8047" y2="859.8047"/><text fill="#000000" font-family="sans-serif" font-size="11" lengthAdjust="spacingAndGlyphs" textLength="115" x="249" y="874.0151">+setTotalTobePaid()</text><!--MD5=[ed74c70821a0645f4af1c19c1cbc911b]
class CurrencyConverter--><rect fill="#FEFECE" filter="url(#fu8rtj3tp2led)" height="48" id="CurrencyConverter" style="stroke: #A80036; stroke-width: 1.5;" width="146" x="6" y="120.5"/><ellipse cx="21" cy="136.5" fill="#B4A7E5" rx="11" ry="11" style="stroke: #A80036; stroke-width: 1.0;"/><path d="M21.9531,133.2813 L23.6719,133.2813 C24.0625,133.2813 24.25,133.25 24.375,133.1719 C24.6406,133.0156 24.7813,132.7344 24.7813,132.4375 C24.7813,132.1719 24.6719,131.9063 24.4375,131.7344 C24.2656,131.625 24.125,131.5938 23.6719,131.5938 L18.5313,131.5938 C18.0938,131.5938 17.9688,131.6094 17.8125,131.7031 C17.5625,131.8594 17.4063,132.1563 17.4063,132.4375 C17.4063,132.7188 17.5469,132.9688 17.7656,133.1406 C17.9219,133.25 18.1094,133.2813 18.5313,133.2813 L20.25,133.2813 L20.25,139.7969 L18.5313,139.7969 C18.0938,139.7969 17.9688,139.8125 17.8125,139.9219 C17.5625,140.0781 17.4063,140.3594 17.4063,140.6563 C17.4063,140.9063 17.5469,141.1719 17.7656,141.3281 C17.9219,141.4531 18.125,141.5 18.5313,141.5 L23.6719,141.5 C24.4219,141.5 24.7813,141.2188 24.7813,140.6563 C24.7813,140.375 24.6719,140.125 24.4375,139.9531 C24.2656,139.8281 24.125,139.7969 23.6719,139.7969 L21.9531,139.7969 L21.9531,133.2813 Z "/><text fill="#000000" font-family="sans-serif" font-size="12" font-style="italic" lengthAdjust="spacingAndGlyphs" textLength="114" x="35" y="140.6543">CurrencyConverter</text><line style="stroke: #A80036; stroke-width: 1.5;" x1="7" x2="151" y1="152.5" y2="152.5"/><line style="stroke: #A80036; stroke-width: 1.5;" x1="7" x2="151" y1="160.5" y2="160.5"/><!--MD5=[86c7c362de55a38b660185a1328fe18d]
class Organization--><rect fill="#FEFECE" filter="url(#fu8rtj3tp2led)" height="99.2188" id="Organization" style="stroke: #A80036; stroke-width: 1.5;" width="143" x="522.5" y="235"/><ellipse cx="553.25" cy="251" fill="#ADD1B2" rx="11" ry="11" style="stroke: #A80036; stroke-width: 1.0;"/><path d="M555.5938,246.6719 C554.6563,246.2344 554.0625,246.0938 553.1875,246.0938 C550.5625,246.0938 548.5625,248.1719 548.5625,250.8906 L548.5625,252.0156 C548.5625,254.5938 550.6719,256.4844 553.5625,256.4844 C554.7813,256.4844 555.9375,256.1875 556.6875,255.6406 C557.2656,255.2344 557.5938,254.7813 557.5938,254.3906 C557.5938,253.9375 557.2031,253.5469 556.7344,253.5469 C556.5156,253.5469 556.3125,253.625 556.125,253.8125 C555.6719,254.2969 555.6719,254.2969 555.4844,254.3906 C555.0625,254.6563 554.375,254.7813 553.6094,254.7813 C551.5625,254.7813 550.2656,253.6875 550.2656,251.9844 L550.2656,250.8906 C550.2656,249.1094 551.5156,247.7969 553.25,247.7969 C553.8281,247.7969 554.4375,247.9531 554.9063,248.2031 C555.3906,248.4844 555.5625,248.7031 555.6563,249.1094 C555.7188,249.5156 555.75,249.6406 555.8906,249.7656 C556.0313,249.9063 556.2656,250.0156 556.4844,250.0156 C556.75,250.0156 557.0156,249.875 557.1875,249.6563 C557.2969,249.5 557.3281,249.3125 557.3281,248.8906 L557.3281,247.4688 C557.3281,247.0313 557.3125,246.9063 557.2188,246.75 C557.0625,246.4844 556.7813,246.3438 556.4844,246.3438 C556.1875,246.3438 555.9844,246.4375 555.7656,246.75 L555.5938,246.6719 Z "/><text fill="#000000" font-family="sans-serif" font-size="12" lengthAdjust="spacingAndGlyphs" textLength="76" x="570.75" y="255.1543">Organization</text><line style="stroke: #A80036; stroke-width: 1.5;" x1="523.5" x2="664.5" y1="267" y2="267"/><text fill="#000000" font-family="sans-serif" font-size="11" lengthAdjust="spacingAndGlyphs" textLength="131" x="528.5" y="281.2104">+unpaidTransactionList</text><text fill="#000000" font-family="sans-serif" font-size="11" lengthAdjust="spacingAndGlyphs" textLength="16" x="528.5" y="294.0151">}~</text><text fill="#000000" font-family="sans-serif" font-size="11" lengthAdjust="spacingAndGlyphs" textLength="127" x="528.5" y="306.8198">class TransactionList {</text><line style="stroke: #A80036; stroke-width: 1.5;" x1="523.5" x2="664.5" y1="313.4141" y2="313.4141"/><text fill="#000000" font-family="sans-serif" font-size="11" lengthAdjust="spacingAndGlyphs" textLength="64" x="528.5" y="327.6245">+transList()</text><!--MD5=[4555bb1b0911a5adf28ce6dbe60fed2e]
class Transaction--><rect fill="#FEFECE" filter="url(#fu8rtj3tp2led)" height="86.4141" id="Transaction" style="stroke: #A80036; stroke-width: 1.5;" width="132" x="528" y="502"/><ellipse cx="556.95" cy="518" fill="#ADD1B2" rx="11" ry="11" style="stroke: #A80036; stroke-width: 1.0;"/><path d="M559.2938,513.6719 C558.3563,513.2344 557.7625,513.0938 556.8875,513.0938 C554.2625,513.0938 552.2625,515.1719 552.2625,517.8906 L552.2625,519.0156 C552.2625,521.5938 554.3719,523.4844 557.2625,523.4844 C558.4813,523.4844 559.6375,523.1875 560.3875,522.6406 C560.9656,522.2344 561.2938,521.7813 561.2938,521.3906 C561.2938,520.9375 560.9031,520.5469 560.4344,520.5469 C560.2156,520.5469 560.0125,520.625 559.825,520.8125 C559.3719,521.2969 559.3719,521.2969 559.1844,521.3906 C558.7625,521.6563 558.075,521.7813 557.3094,521.7813 C555.2625,521.7813 553.9656,520.6875 553.9656,518.9844 L553.9656,517.8906 C553.9656,516.1094 555.2156,514.7969 556.95,514.7969 C557.5281,514.7969 558.1375,514.9531 558.6063,515.2031 C559.0906,515.4844 559.2625,515.7031 559.3563,516.1094 C559.4188,516.5156 559.45,516.6406 559.5906,516.7656 C559.7313,516.9063 559.9656,517.0156 560.1844,517.0156 C560.45,517.0156 560.7156,516.875 560.8875,516.6563 C560.9969,516.5 561.0281,516.3125 561.0281,515.8906 L561.0281,514.4688 C561.0281,514.0313 561.0125,513.9063 560.9188,513.75 C560.7625,513.4844 560.4813,513.3438 560.1844,513.3438 C559.8875,513.3438 559.6844,513.4375 559.4656,513.75 L559.2938,513.6719 Z "/><text fill="#000000" font-family="sans-serif" font-size="12" lengthAdjust="spacingAndGlyphs" textLength="69" x="574.05" y="522.1543">Transaction</text><line style="stroke: #A80036; stroke-width: 1.5;" x1="529" x2="659" y1="534" y2="534"/><line style="stroke: #A80036; stroke-width: 1.5;" x1="529" x2="659" y1="542" y2="542"/><text fill="#000000" font-family="sans-serif" font-size="11" lengthAdjust="spacingAndGlyphs" textLength="120" x="534" y="556.2104">+getPaymentstatus()</text><text fill="#000000" font-family="sans-serif" font-size="11" lengthAdjust="spacingAndGlyphs" textLength="108" x="534" y="569.0151">+ammountToPaid()</text><text fill="#000000" font-family="sans-serif" font-size="11" lengthAdjust="spacingAndGlyphs" textLength="64" x="534" y="581.8198">+transList()</text><!--MD5=[764fca796ce7f635542948d8fc39db5e]
class Payment--><rect fill="#FEFECE" filter="url(#fu8rtj3tp2led)" height="86.4141" id="Payment" style="stroke: #A80036; stroke-width: 1.5;" width="107" x="390.5" y="654.5"/><ellipse cx="416.75" cy="670.5" fill="#ADD1B2" rx="11" ry="11" style="stroke: #A80036; stroke-width: 1.0;"/><path d="M419.0938,666.1719 C418.1563,665.7344 417.5625,665.5938 416.6875,665.5938 C414.0625,665.5938 412.0625,667.6719 412.0625,670.3906 L412.0625,671.5156 C412.0625,674.0938 414.1719,675.9844 417.0625,675.9844 C418.2813,675.9844 419.4375,675.6875 420.1875,675.1406 C420.7656,674.7344 421.0938,674.2813 421.0938,673.8906 C421.0938,673.4375 420.7031,673.0469 420.2344,673.0469 C420.0156,673.0469 419.8125,673.125 419.625,673.3125 C419.1719,673.7969 419.1719,673.7969 418.9844,673.8906 C418.5625,674.1563 417.875,674.2813 417.1094,674.2813 C415.0625,674.2813 413.7656,673.1875 413.7656,671.4844 L413.7656,670.3906 C413.7656,668.6094 415.0156,667.2969 416.75,667.2969 C417.3281,667.2969 417.9375,667.4531 418.4063,667.7031 C418.8906,667.9844 419.0625,668.2031 419.1563,668.6094 C419.2188,669.0156 419.25,669.1406 419.3906,669.2656 C419.5313,669.4063 419.7656,669.5156 419.9844,669.5156 C420.25,669.5156 420.5156,669.375 420.6875,669.1563 C420.7969,669 420.8281,668.8125 420.8281,668.3906 L420.8281,666.9688 C420.8281,666.5313 420.8125,666.4063 420.7188,666.25 C420.5625,665.9844 420.2813,665.8438 419.9844,665.8438 C419.6875,665.8438 419.4844,665.9375 419.2656,666.25 L419.0938,666.1719 Z "/><text fill="#000000" font-family="sans-serif" font-size="12" lengthAdjust="spacingAndGlyphs" textLength="50" x="433.25" y="674.6543">Payment</text><line style="stroke: #A80036; stroke-width: 1.5;" x1="391.5" x2="496.5" y1="686.5" y2="686.5"/><text fill="#000000" font-family="sans-serif" font-size="11" lengthAdjust="spacingAndGlyphs" textLength="75" x="396.5" y="700.7104">double value</text><text fill="#000000" font-family="sans-serif" font-size="11" lengthAdjust="spacingAndGlyphs" textLength="71" x="396.5" y="713.5151">int invoiceID</text><line style="stroke: #A80036; stroke-width: 1.5;" x1="391.5" x2="496.5" y1="720.1094" y2="720.1094"/><text fill="#000000" font-family="sans-serif" font-size="11" lengthAdjust="spacingAndGlyphs" textLength="95" x="396.5" y="734.3198">+getPaidStatus()</text><!--MD5=[52bbee025a435258c6397b17d94a5a49]
class FreelancerRegister--><rect fill="#FEFECE" filter="url(#fu8rtj3tp2led)" height="60.8047" id="FreelancerRegister" style="stroke: #A80036; stroke-width: 1.5;" width="147" x="187.5" y="114"/><ellipse cx="202.5" cy="130" fill="#ADD1B2" rx="11" ry="11" style="stroke: #A80036; stroke-width: 1.0;"/><path d="M204.8438,125.6719 C203.9063,125.2344 203.3125,125.0938 202.4375,125.0938 C199.8125,125.0938 197.8125,127.1719 197.8125,129.8906 L197.8125,131.0156 C197.8125,133.5938 199.9219,135.4844 202.8125,135.4844 C204.0313,135.4844 205.1875,135.1875 205.9375,134.6406 C206.5156,134.2344 206.8438,133.7813 206.8438,133.3906 C206.8438,132.9375 206.4531,132.5469 205.9844,132.5469 C205.7656,132.5469 205.5625,132.625 205.375,132.8125 C204.9219,133.2969 204.9219,133.2969 204.7344,133.3906 C204.3125,133.6563 203.625,133.7813 202.8594,133.7813 C200.8125,133.7813 199.5156,132.6875 199.5156,130.9844 L199.5156,129.8906 C199.5156,128.1094 200.7656,126.7969 202.5,126.7969 C203.0781,126.7969 203.6875,126.9531 204.1563,127.2031 C204.6406,127.4844 204.8125,127.7031 204.9063,128.1094 C204.9688,128.5156 205,128.6406 205.1406,128.7656 C205.2813,128.9063 205.5156,129.0156 205.7344,129.0156 C206,129.0156 206.2656,128.875 206.4375,128.6563 C206.5469,128.5 206.5781,128.3125 206.5781,127.8906 L206.5781,126.4688 C206.5781,126.0313 206.5625,125.9063 206.4688,125.75 C206.3125,125.4844 206.0313,125.3438 205.7344,125.3438 C205.4375,125.3438 205.2344,125.4375 205.0156,125.75 L204.8438,125.6719 Z "/><text fill="#000000" font-family="sans-serif" font-size="12" lengthAdjust="spacingAndGlyphs" textLength="115" x="216.5" y="134.1543">FreelancerRegister</text><line style="stroke: #A80036; stroke-width: 1.5;" x1="188.5" x2="333.5" y1="146" y2="146"/><line style="stroke: #A80036; stroke-width: 1.5;" x1="188.5" x2="333.5" y1="154" y2="154"/><text fill="#000000" font-family="sans-serif" font-size="11" lengthAdjust="spacingAndGlyphs" textLength="98" x="193.5" y="168.2104">+freelancerList();</text><!--MD5=[1f687b5315377fe49fca59b457947463]
class Freelancer--><rect fill="#FEFECE" filter="url(#fu8rtj3tp2led)" height="73.6094" id="Freelancer" style="stroke: #A80036; stroke-width: 1.5;" width="122" x="533" y="660.5"/><ellipse cx="559.25" cy="676.5" fill="#ADD1B2" rx="11" ry="11" style="stroke: #A80036; stroke-width: 1.0;"/><path d="M561.5938,672.1719 C560.6563,671.7344 560.0625,671.5938 559.1875,671.5938 C556.5625,671.5938 554.5625,673.6719 554.5625,676.3906 L554.5625,677.5156 C554.5625,680.0938 556.6719,681.9844 559.5625,681.9844 C560.7813,681.9844 561.9375,681.6875 562.6875,681.1406 C563.2656,680.7344 563.5938,680.2813 563.5938,679.8906 C563.5938,679.4375 563.2031,679.0469 562.7344,679.0469 C562.5156,679.0469 562.3125,679.125 562.125,679.3125 C561.6719,679.7969 561.6719,679.7969 561.4844,679.8906 C561.0625,680.1563 560.375,680.2813 559.6094,680.2813 C557.5625,680.2813 556.2656,679.1875 556.2656,677.4844 L556.2656,676.3906 C556.2656,674.6094 557.5156,673.2969 559.25,673.2969 C559.8281,673.2969 560.4375,673.4531 560.9063,673.7031 C561.3906,673.9844 561.5625,674.2031 561.6563,674.6094 C561.7188,675.0156 561.75,675.1406 561.8906,675.2656 C562.0313,675.4063 562.2656,675.5156 562.4844,675.5156 C562.75,675.5156 563.0156,675.375 563.1875,675.1563 C563.2969,675 563.3281,674.8125 563.3281,674.3906 L563.3281,672.9688 C563.3281,672.5313 563.3125,672.4063 563.2188,672.25 C563.0625,671.9844 562.7813,671.8438 562.4844,671.8438 C562.1875,671.8438 561.9844,671.9375 561.7656,672.25 L561.5938,672.1719 Z "/><text fill="#000000" font-family="sans-serif" font-size="12" lengthAdjust="spacingAndGlyphs" textLength="65" x="575.75" y="680.6543">Freelancer</text><line style="stroke: #A80036; stroke-width: 1.5;" x1="534" x2="654" y1="692.5" y2="692.5"/><text fill="#000000" font-family="sans-serif" font-size="11" lengthAdjust="spacingAndGlyphs" textLength="95" x="539" y="706.7104">Address address</text><line style="stroke: #A80036; stroke-width: 1.5;" x1="534" x2="654" y1="713.3047" y2="713.3047"/><text fill="#000000" font-family="sans-serif" font-size="11" lengthAdjust="spacingAndGlyphs" textLength="110" x="539" y="727.5151">+getFreelancerId();</text><!--MD5=[0f39e4cb6f03951afbf6d14bd2505654]
class Address--><rect fill="#FEFECE" filter="url(#fu8rtj3tp2led)" height="60.8047" id="Address" style="stroke: #A80036; stroke-width: 1.5;" width="102" x="543" y="813.5"/><ellipse cx="566.55" cy="829.5" fill="#ADD1B2" rx="11" ry="11" style="stroke: #A80036; stroke-width: 1.0;"/><path d="M568.8938,825.1719 C567.9563,824.7344 567.3625,824.5938 566.4875,824.5938 C563.8625,824.5938 561.8625,826.6719 561.8625,829.3906 L561.8625,830.5156 C561.8625,833.0938 563.9719,834.9844 566.8625,834.9844 C568.0813,834.9844 569.2375,834.6875 569.9875,834.1406 C570.5656,833.7344 570.8938,833.2813 570.8938,832.8906 C570.8938,832.4375 570.5031,832.0469 570.0344,832.0469 C569.8156,832.0469 569.6125,832.125 569.425,832.3125 C568.9719,832.7969 568.9719,832.7969 568.7844,832.8906 C568.3625,833.1563 567.675,833.2813 566.9094,833.2813 C564.8625,833.2813 563.5656,832.1875 563.5656,830.4844 L563.5656,829.3906 C563.5656,827.6094 564.8156,826.2969 566.55,826.2969 C567.1281,826.2969 567.7375,826.4531 568.2063,826.7031 C568.6906,826.9844 568.8625,827.2031 568.9563,827.6094 C569.0188,828.0156 569.05,828.1406 569.1906,828.2656 C569.3313,828.4063 569.5656,828.5156 569.7844,828.5156 C570.05,828.5156 570.3156,828.375 570.4875,828.1563 C570.5969,828 570.6281,827.8125 570.6281,827.3906 L570.6281,825.9688 C570.6281,825.5313 570.6125,825.4063 570.5188,825.25 C570.3625,824.9844 570.0813,824.8438 569.7844,824.8438 C569.4875,824.8438 569.2844,824.9375 569.0656,825.25 L568.8938,825.1719 Z "/><text fill="#000000" font-family="sans-serif" font-size="12" lengthAdjust="spacingAndGlyphs" textLength="51" x="582.45" y="833.6543">Address</text><line style="stroke: #A80036; stroke-width: 1.5;" x1="544" x2="644" y1="845.5" y2="845.5"/><text fill="#000000" font-family="sans-serif" font-size="11" lengthAdjust="spacingAndGlyphs" textLength="90" x="549" y="859.7104">Country country</text><line style="stroke: #A80036; stroke-width: 1.5;" x1="544" x2="644" y1="866.3047" y2="866.3047"/><!--MD5=[deb4e1f6eb1e3c1256fdb830f96abfbb]
class Country--><rect fill="#FEFECE" filter="url(#fu8rtj3tp2led)" height="60.8047" id="Country" style="stroke: #A80036; stroke-width: 1.5;" width="119" x="534.5" y="941"/><ellipse cx="567.95" cy="957" fill="#ADD1B2" rx="11" ry="11" style="stroke: #A80036; stroke-width: 1.0;"/><path d="M570.2938,952.6719 C569.3563,952.2344 568.7625,952.0938 567.8875,952.0938 C565.2625,952.0938 563.2625,954.1719 563.2625,956.8906 L563.2625,958.0156 C563.2625,960.5938 565.3719,962.4844 568.2625,962.4844 C569.4813,962.4844 570.6375,962.1875 571.3875,961.6406 C571.9656,961.2344 572.2938,960.7813 572.2938,960.3906 C572.2938,959.9375 571.9031,959.5469 571.4344,959.5469 C571.2156,959.5469 571.0125,959.625 570.825,959.8125 C570.3719,960.2969 570.3719,960.2969 570.1844,960.3906 C569.7625,960.6563 569.075,960.7813 568.3094,960.7813 C566.2625,960.7813 564.9656,959.6875 564.9656,957.9844 L564.9656,956.8906 C564.9656,955.1094 566.2156,953.7969 567.95,953.7969 C568.5281,953.7969 569.1375,953.9531 569.6063,954.2031 C570.0906,954.4844 570.2625,954.7031 570.3563,955.1094 C570.4188,955.5156 570.45,955.6406 570.5906,955.7656 C570.7313,955.9063 570.9656,956.0156 571.1844,956.0156 C571.45,956.0156 571.7156,955.875 571.8875,955.6563 C571.9969,955.5 572.0281,955.3125 572.0281,954.8906 L572.0281,953.4688 C572.0281,953.0313 572.0125,952.9063 571.9188,952.75 C571.7625,952.4844 571.4813,952.3438 571.1844,952.3438 C570.8875,952.3438 570.6844,952.4375 570.4656,952.75 L570.2938,952.6719 Z "/><text fill="#000000" font-family="sans-serif" font-size="12" lengthAdjust="spacingAndGlyphs" textLength="46" x="586.05" y="961.1543">Country</text><line style="stroke: #A80036; stroke-width: 1.5;" x1="535.5" x2="652.5" y1="973" y2="973"/><text fill="#000000" font-family="sans-serif" font-size="11" lengthAdjust="spacingAndGlyphs" textLength="107" x="540.5" y="987.2104">string countryCode</text><line style="stroke: #A80036; stroke-width: 1.5;" x1="535.5" x2="652.5" y1="993.8047" y2="993.8047"/><!--MD5=[37e2bf93b6e1c803faf1c4be12a2822d]
class EmailSystem--><rect fill="#FEFECE" filter="url(#fu8rtj3tp2led)" height="48" id="EmailSystem" style="stroke: #A80036; stroke-width: 1.5;" width="110" x="370" y="120.5"/><ellipse cx="385" cy="136.5" fill="#B4A7E5" rx="11" ry="11" style="stroke: #A80036; stroke-width: 1.0;"/><path d="M385.9531,133.2813 L387.6719,133.2813 C388.0625,133.2813 388.25,133.25 388.375,133.1719 C388.6406,133.0156 388.7813,132.7344 388.7813,132.4375 C388.7813,132.1719 388.6719,131.9063 388.4375,131.7344 C388.2656,131.625 388.125,131.5938 387.6719,131.5938 L382.5313,131.5938 C382.0938,131.5938 381.9688,131.6094 381.8125,131.7031 C381.5625,131.8594 381.4063,132.1563 381.4063,132.4375 C381.4063,132.7188 381.5469,132.9688 381.7656,133.1406 C381.9219,133.25 382.1094,133.2813 382.5313,133.2813 L384.25,133.2813 L384.25,139.7969 L382.5313,139.7969 C382.0938,139.7969 381.9688,139.8125 381.8125,139.9219 C381.5625,140.0781 381.4063,140.3594 381.4063,140.6563 C381.4063,140.9063 381.5469,141.1719 381.7656,141.3281 C381.9219,141.4531 382.125,141.5 382.5313,141.5 L387.6719,141.5 C388.4219,141.5 388.7813,141.2188 388.7813,140.6563 C388.7813,140.375 388.6719,140.125 388.4375,139.9531 C388.2656,139.8281 388.125,139.7969 387.6719,139.7969 L385.9531,139.7969 L385.9531,133.2813 Z "/><text fill="#000000" font-family="sans-serif" font-size="12" font-style="italic" lengthAdjust="spacingAndGlyphs" textLength="78" x="399" y="140.6543">EmailSystem</text><line style="stroke: #A80036; stroke-width: 1.5;" x1="371" x2="479" y1="152.5" y2="152.5"/><line style="stroke: #A80036; stroke-width: 1.5;" x1="371" x2="479" y1="160.5" y2="160.5"/><!--MD5=[99b8db98afdc2c8404e39242ef4c1e65]
class Platform--><rect fill="#FEFECE" filter="url(#fu8rtj3tp2led)" height="48" id="Platform" style="stroke: #A80036; stroke-width: 1.5;" width="80" x="303" y="6"/><ellipse cx="318" cy="22" fill="#ADD1B2" rx="11" ry="11" style="stroke: #A80036; stroke-width: 1.0;"/><path d="M320.3438,17.6719 C319.4063,17.2344 318.8125,17.0938 317.9375,17.0938 C315.3125,17.0938 313.3125,19.1719 313.3125,21.8906 L313.3125,23.0156 C313.3125,25.5938 315.4219,27.4844 318.3125,27.4844 C319.5313,27.4844 320.6875,27.1875 321.4375,26.6406 C322.0156,26.2344 322.3438,25.7813 322.3438,25.3906 C322.3438,24.9375 321.9531,24.5469 321.4844,24.5469 C321.2656,24.5469 321.0625,24.625 320.875,24.8125 C320.4219,25.2969 320.4219,25.2969 320.2344,25.3906 C319.8125,25.6563 319.125,25.7813 318.3594,25.7813 C316.3125,25.7813 315.0156,24.6875 315.0156,22.9844 L315.0156,21.8906 C315.0156,20.1094 316.2656,18.7969 318,18.7969 C318.5781,18.7969 319.1875,18.9531 319.6563,19.2031 C320.1406,19.4844 320.3125,19.7031 320.4063,20.1094 C320.4688,20.5156 320.5,20.6406 320.6406,20.7656 C320.7813,20.9063 321.0156,21.0156 321.2344,21.0156 C321.5,21.0156 321.7656,20.875 321.9375,20.6563 C322.0469,20.5 322.0781,20.3125 322.0781,19.8906 L322.0781,18.4688 C322.0781,18.0313 322.0625,17.9063 321.9688,17.75 C321.8125,17.4844 321.5313,17.3438 321.2344,17.3438 C320.9375,17.3438 320.7344,17.4375 320.5156,17.75 L320.3438,17.6719 Z "/><text fill="#000000" font-family="sans-serif" font-size="12" lengthAdjust="spacingAndGlyphs" textLength="48" x="332" y="26.1543">Platform</text><line style="stroke: #A80036; stroke-width: 1.5;" x1="304" x2="382" y1="38" y2="38"/><line style="stroke: #A80036; stroke-width: 1.5;" x1="304" x2="382" y1="46" y2="46"/><!--MD5=[085c157399186ac5e3270746cbaa2af0]
class OrganizationRegistry--><rect fill="#FEFECE" filter="url(#fu8rtj3tp2led)" height="48" id="OrganizationRegistry" style="stroke: #A80036; stroke-width: 1.5;" width="157" x="515.5" y="120.5"/><ellipse cx="530.5" cy="136.5" fill="#ADD1B2" rx="11" ry="11" style="stroke: #A80036; stroke-width: 1.0;"/><path d="M532.8438,132.1719 C531.9063,131.7344 531.3125,131.5938 530.4375,131.5938 C527.8125,131.5938 525.8125,133.6719 525.8125,136.3906 L525.8125,137.5156 C525.8125,140.0938 527.9219,141.9844 530.8125,141.9844 C532.0313,141.9844 533.1875,141.6875 533.9375,141.1406 C534.5156,140.7344 534.8438,140.2813 534.8438,139.8906 C534.8438,139.4375 534.4531,139.0469 533.9844,139.0469 C533.7656,139.0469 533.5625,139.125 533.375,139.3125 C532.9219,139.7969 532.9219,139.7969 532.7344,139.8906 C532.3125,140.1563 531.625,140.2813 530.8594,140.2813 C528.8125,140.2813 527.5156,139.1875 527.5156,137.4844 L527.5156,136.3906 C527.5156,134.6094 528.7656,133.2969 530.5,133.2969 C531.0781,133.2969 531.6875,133.4531 532.1563,133.7031 C532.6406,133.9844 532.8125,134.2031 532.9063,134.6094 C532.9688,135.0156 533,135.1406 533.1406,135.2656 C533.2813,135.4063 533.5156,135.5156 533.7344,135.5156 C534,135.5156 534.2656,135.375 534.4375,135.1563 C534.5469,135 534.5781,134.8125 534.5781,134.3906 L534.5781,132.9688 C534.5781,132.5313 534.5625,132.4063 534.4688,132.25 C534.3125,131.9844 534.0313,131.8438 533.7344,131.8438 C533.4375,131.8438 533.2344,131.9375 533.0156,132.25 L532.8438,132.1719 Z "/><text fill="#000000" font-family="sans-serif" font-size="12" lengthAdjust="spacingAndGlyphs" textLength="125" x="544.5" y="140.6543">OrganizationRegistry</text><line style="stroke: #A80036; stroke-width: 1.5;" x1="516.5" x2="671.5" y1="152.5" y2="152.5"/><line style="stroke: #A80036; stroke-width: 1.5;" x1="516.5" x2="671.5" y1="160.5" y2="160.5"/><!--MD5=[4c7a4844927343388be36e4ab2f98062]
class TransactionList--><rect fill="#FEFECE" filter="url(#fu8rtj3tp2led)" height="48" id="TransactionList" style="stroke: #A80036; stroke-width: 1.5;" width="121" x="533.5" y="394"/><ellipse cx="548.5" cy="410" fill="#ADD1B2" rx="11" ry="11" style="stroke: #A80036; stroke-width: 1.0;"/><path d="M550.8438,405.6719 C549.9063,405.2344 549.3125,405.0938 548.4375,405.0938 C545.8125,405.0938 543.8125,407.1719 543.8125,409.8906 L543.8125,411.0156 C543.8125,413.5938 545.9219,415.4844 548.8125,415.4844 C550.0313,415.4844 551.1875,415.1875 551.9375,414.6406 C552.5156,414.2344 552.8438,413.7813 552.8438,413.3906 C552.8438,412.9375 552.4531,412.5469 551.9844,412.5469 C551.7656,412.5469 551.5625,412.625 551.375,412.8125 C550.9219,413.2969 550.9219,413.2969 550.7344,413.3906 C550.3125,413.6563 549.625,413.7813 548.8594,413.7813 C546.8125,413.7813 545.5156,412.6875 545.5156,410.9844 L545.5156,409.8906 C545.5156,408.1094 546.7656,406.7969 548.5,406.7969 C549.0781,406.7969 549.6875,406.9531 550.1563,407.2031 C550.6406,407.4844 550.8125,407.7031 550.9063,408.1094 C550.9688,408.5156 551,408.6406 551.1406,408.7656 C551.2813,408.9063 551.5156,409.0156 551.7344,409.0156 C552,409.0156 552.2656,408.875 552.4375,408.6563 C552.5469,408.5 552.5781,408.3125 552.5781,407.8906 L552.5781,406.4688 C552.5781,406.0313 552.5625,405.9063 552.4688,405.75 C552.3125,405.4844 552.0313,405.3438 551.7344,405.3438 C551.4375,405.3438 551.2344,405.4375 551.0156,405.75 L550.8438,405.6719 Z "/><text fill="#000000" font-family="sans-serif" font-size="12" lengthAdjust="spacingAndGlyphs" textLength="89" x="562.5" y="414.1543">TransactionList</text><line style="stroke: #A80036; stroke-width: 1.5;" x1="534.5" x2="653.5" y1="426" y2="426"/><line style="stroke: #A80036; stroke-width: 1.5;" x1="534.5" x2="653.5" y1="434" y2="434"/><!--MD5=[b34797a66dc35cbf1d65f7e3ca75530e]
class Task--><rect fill="#FEFECE" filter="url(#fu8rtj3tp2led)" height="48" id="Task" style="stroke: #A80036; stroke-width: 1.5;" width="60" x="690" y="673.5"/><ellipse cx="705" cy="689.5" fill="#ADD1B2" rx="11" ry="11" style="stroke: #A80036; stroke-width: 1.0;"/><path d="M707.3438,685.1719 C706.4063,684.7344 705.8125,684.5938 704.9375,684.5938 C702.3125,684.5938 700.3125,686.6719 700.3125,689.3906 L700.3125,690.5156 C700.3125,693.0938 702.4219,694.9844 705.3125,694.9844 C706.5313,694.9844 707.6875,694.6875 708.4375,694.1406 C709.0156,693.7344 709.3438,693.2813 709.3438,692.8906 C709.3438,692.4375 708.9531,692.0469 708.4844,692.0469 C708.2656,692.0469 708.0625,692.125 707.875,692.3125 C707.4219,692.7969 707.4219,692.7969 707.2344,692.8906 C706.8125,693.1563 706.125,693.2813 705.3594,693.2813 C703.3125,693.2813 702.0156,692.1875 702.0156,690.4844 L702.0156,689.3906 C702.0156,687.6094 703.2656,686.2969 705,686.2969 C705.5781,686.2969 706.1875,686.4531 706.6563,686.7031 C707.1406,686.9844 707.3125,687.2031 707.4063,687.6094 C707.4688,688.0156 707.5,688.1406 707.6406,688.2656 C707.7813,688.4063 708.0156,688.5156 708.2344,688.5156 C708.5,688.5156 708.7656,688.375 708.9375,688.1563 C709.0469,688 709.0781,687.8125 709.0781,687.3906 L709.0781,685.9688 C709.0781,685.5313 709.0625,685.4063 708.9688,685.25 C708.8125,684.9844 708.5313,684.8438 708.2344,684.8438 C707.9375,684.8438 707.7344,684.9375 707.5156,685.25 L707.3438,685.1719 Z "/><text fill="#000000" font-family="sans-serif" font-size="12" lengthAdjust="spacingAndGlyphs" textLength="28" x="719" y="693.6543">Task</text><line style="stroke: #A80036; stroke-width: 1.5;" x1="691" x2="749" y1="705.5" y2="705.5"/><line style="stroke: #A80036; stroke-width: 1.5;" x1="691" x2="749" y1="713.5" y2="713.5"/><!--MD5=[131048cabcc3d022fea8f7c47a817afd]
link ScheduledMakePayments to MakePayments--><path d="M268,442.219 C268,457.514 268,478.087 268,496.734 " fill="none" id="ScheduledMakePayments-&gt;MakePayments" style="stroke: #A80036; stroke-width: 1.0;"/><polygon fill="#A80036" points="268,501.936,272,492.936,268,496.936,264,492.936,268,501.936" style="stroke: #A80036; stroke-width: 1.0;"/><!--MD5=[3a5fc800ce09abfb410ae6739d78714c]
link Platform to EmailSystem--><path d="M359.792,54.038 C372.947,72.086 391.283,97.242 405.162,116.284 " fill="none" id="Platform-&gt;EmailSystem" style="stroke: #A80036; stroke-width: 1.0;"/><polygon fill="#A80036" points="408.231,120.493,406.1623,110.8639,405.2859,116.4524,399.6973,115.576,408.231,120.493" style="stroke: #A80036; stroke-width: 1.0;"/><!--MD5=[fba7b6a92ebfada12ab2e34a64f6ce82]
link Platform to CurrencyConverter--><path d="M302.904,48.086 C259.027,66.784 188.254,96.943 138.031,118.345 " fill="none" id="Platform-&gt;CurrencyConverter" style="stroke: #A80036; stroke-width: 1.0;"/><polygon fill="#A80036" points="133.236,120.388,143.0837,120.54,137.8359,118.4281,139.9478,113.1802,133.236,120.388" style="stroke: #A80036; stroke-width: 1.0;"/><!--MD5=[a4ac9eb7bedd5751c2e4e92a6769c825]
link Platform to OrganizationRegistry--><path d="M383.049,48.95 C424.798,67.663 490.574,97.144 537.575,118.21 " fill="none" id="Platform-&gt;OrganizationRegistry" style="stroke: #A80036; stroke-width: 1.0;"/><polygon fill="#A80036" points="542.349,120.35,535.7711,113.0198,537.786,118.3057,532.5002,120.3206,542.349,120.35" style="stroke: #A80036; stroke-width: 1.0;"/><!--MD5=[31b160c41b40f1f198969df3eb5fcc67]
link Platform to FreelancerRegister--><path d="M326.208,54.038 C314.632,69.92 299.044,91.305 286.012,109.185 " fill="none" id="Platform-&gt;FreelancerRegister" style="stroke: #A80036; stroke-width: 1.0;"/><polygon fill="#A80036" points="282.758,113.65,291.2917,108.733,285.7031,109.6094,284.8267,104.0209,282.758,113.65" style="stroke: #A80036; stroke-width: 1.0;"/><!--MD5=[b2762b777d2a3229199d6c9639783ee8]
link MakePayments to InvoiceRegistry--><path d="M268,588.323 C268,605.25 268,624.946 268,642.858 " fill="none" id="MakePayments-&gt;InvoiceRegistry" style="stroke: #A80036; stroke-width: 1.0;"/><polygon fill="#A80036" points="268,647.859,272,638.859,268,642.859,264,638.859,268,647.859" style="stroke: #A80036; stroke-width: 1.0;"/><!--MD5=[f04d3ec05f72fb9b6dae275db53e9eee]
link InvoiceRegistry to Invoice--><path d="M292.175,747.018 C301.063,764.855 311.032,784.862 319.559,801.976 " fill="none" id="InvoiceRegistry-&gt;Invoice" style="stroke: #A80036; stroke-width: 1.0;"/><polygon fill="#A80036" points="321.924,806.722,321.4906,796.8827,319.6942,802.2467,314.3302,800.4503,321.924,806.722" style="stroke: #A80036; stroke-width: 1.0;"/><!--MD5=[ad5c87a1752d97ae4ad873f800bb8e80]
link OrganizationRegistry to Organization--><path d="M594,168.598 C594,185.291 594,208.544 594,229.768 " fill="none" id="OrganizationRegistry-&gt;Organization" style="stroke: #A80036; stroke-width: 1.0;"/><polygon fill="#A80036" points="594,234.829,598,225.829,594,229.829,590,225.829,594,234.829" style="stroke: #A80036; stroke-width: 1.0;"/><!--MD5=[84a38da9c3d99217a1c685a54ec6dcdf]
link Organization to TransactionList--><path d="M594,334.092 C594,352.497 594,372.831 594,388.755 " fill="none" id="Organization-&gt;TransactionList" style="stroke: #A80036; stroke-width: 1.0;"/><polygon fill="#A80036" points="594,393.977,598,384.977,594,388.977,590,384.977,594,393.977" style="stroke: #A80036; stroke-width: 1.0;"/><!--MD5=[545e25a30d1ad2740d495af8a10c5351]
link TransactionList to Transaction--><path d="M594,442.219 C594,457.514 594,478.087 594,496.734 " fill="none" id="TransactionList-&gt;Transaction" style="stroke: #A80036; stroke-width: 1.0;"/><polygon fill="#A80036" points="594,501.936,598,492.936,594,496.936,590,492.936,594,501.936" style="stroke: #A80036; stroke-width: 1.0;"/><!--MD5=[542f32193441b56ea302115ed1249c3b]
link Transaction to Freelancer--><path d="M594,588.323 C594,609.162 594,634.197 594,654.933 " fill="none" id="Transaction-&gt;Freelancer" style="stroke: #A80036; stroke-width: 1.0;"/><polygon fill="#A80036" points="594,660.107,598,651.107,594,655.107,590,651.107,594,660.107" style="stroke: #A80036; stroke-width: 1.0;"/><!--MD5=[8e4873cec2cb3febaaa9495c716fc885]
link Transaction to Task--><path d="M629.433,588.323 C651.087,614.187 678.152,646.515 697.031,669.064 " fill="none" id="Transaction-&gt;Task" style="stroke: #A80036; stroke-width: 1.0;"/><polygon fill="#A80036" points="700.457,673.157,697.745,663.6889,697.2467,669.3238,691.6118,668.8254,700.457,673.157" style="stroke: #A80036; stroke-width: 1.0;"/><!--MD5=[ee25a9e267be641cadbaef6c1594e19f]
link Transaction to Payment--><path d="M551.817,588.323 C532.483,607.722 509.524,630.757 489.772,650.576 " fill="none" id="Transaction-&gt;Payment" style="stroke: #A80036; stroke-width: 1.0;"/><polygon fill="#A80036" points="485.866,654.495,495.0519,650.9428,489.3951,650.953,489.3848,645.2962,485.866,654.495" style="stroke: #A80036; stroke-width: 1.0;"/><!--MD5=[874150c88719dac3f651931978d26083]
link Freelancer to Address--><path d="M594,734.591 C594,757.034 594,785.748 594,807.986 " fill="none" id="Freelancer-&gt;Address" style="stroke: #A80036; stroke-width: 1.0;"/><polygon fill="#A80036" points="594,813.203,598,804.203,594,808.203,590,804.203,594,813.203" style="stroke: #A80036; stroke-width: 1.0;"/><!--MD5=[fa14470ca025e2dabf590937e8b2fb39]
link Payment to Invoice--><path d="M413.639,740.684 C399.593,760.2 382.983,783.279 369.096,802.573 " fill="none" id="Payment-&gt;Invoice" style="stroke: #A80036; stroke-width: 1.0;"/><polygon fill="#A80036" points="365.994,806.883,374.498,801.9148,368.9148,802.8248,368.0048,797.2416,365.994,806.883" style="stroke: #A80036; stroke-width: 1.0;"/><!--MD5=[37d1303cc6abd6bcd290d018c581002b]
link Address to Country--><path d="M594,874.742 C594,893.028 594,916.543 594,935.6939 " fill="none" id="Address-&gt;Country" style="stroke: #A80036; stroke-width: 1.0;"/><polygon fill="#A80036" points="594,940.9717,598,931.9717,594,935.9717,590,931.9717,594,940.9717" style="stroke: #A80036; stroke-width: 1.0;"/><!--MD5=[10202c2781b877f6a63d1b1adaaa179b]
@startuml
skinparam classAttributeIconSize 0


class ScheduledMakePayments {
}
class MakePayments {
  +makePayments()
  +writePaymentsToFile()
  +registerPayment()
}
class InvoiceRegistry  {
  +sendInvoicesByMail()
  +addEntryToInvoice()
  +hasInvoiceWithfreelancer()
   +addInvoice()
}
class Invoice  {
 List<task, Payment> listOfTasks 
 +setTotalTobePaid()
}
Interface CurrencyConverter  {
}
class Organization {
  +unpaidTransactionList
}~
class TransactionList {
  +transList()
}
class Transaction {
  +getPaymentstatus()
  +ammountToPaid()
  +transList()
}
class Payment {
  double value
  int invoiceID
  + getPaidStatus()
}

class FreelancerRegister {
    +freelancerList();
}
class Freelancer {
    Address address
    +getFreelancerId();
}
class Address {
    Country country
}
class Country {
    string countryCode
}

Interface EmailSystem  {
}


ScheduledMakePayments  - ->  MakePayments
Platform - -> EmailSystem
Platform - -> CurrencyConverter
Platform - -> OrganizationRegistry
Platform - -> FreelancerRegister
MakePayments - ->  InvoiceRegistry
InvoiceRegistry  - ->  Invoice


OrganizationRegistry  - ->  Organization
Organization  - ->  TransactionList

TransactionList  - ->  Transaction
Transaction  - ->  Freelancer
Transaction - -> Task 
Transaction - ->Payment
Freelancer - -> Address
Payment - -> Invoice
Address - -> Country
@enduml

PlantUML version 1.2020.12(Sat Jun 06 10:54:15 UTC 2020)
(GPL source distribution)
Java Runtime: Java(TM) SE Runtime Environment
JVM: Java HotSpot(TM) 64-Bit Server VM
Default Encoding: UTF-8
Language: en
Country: US
--></g></svg>