<?xml version="1.0" encoding="UTF-8" standalone="no"?><svg xmlns="http://www.w3.org/2000/svg" xmlns:xlink="http://www.w3.org/1999/xlink" contentScriptType="application/ecmascript" contentStyleType="text/css" height="821px" preserveAspectRatio="none" style="width:707px;height:821px;" version="1.1" viewBox="0 0 707 821" width="707px" zoomAndPan="magnify"><defs><filter height="300%" id="f1anrzdjxgfdhl" width="300%" x="-1" y="-1"><feGaussianBlur result="blurOut" stdDeviation="2.0"/><feColorMatrix in="blurOut" result="blurOut2" type="matrix" values="0 0 0 0 0 0 0 0 0 0 0 0 0 0 0 0 0 0 .4 0"/><feOffset dx="4.0" dy="4.0" in="blurOut2" result="blurOut3"/><feBlend in="SourceGraphic" in2="blurOut3" mode="normal"/></filter></defs><g><!--MD5=[37e2bf93b6e1c803faf1c4be12a2822d]
class EmailSystem--><rect fill="#FEFECE" filter="url(#f1anrzdjxgfdhl)" height="48" id="EmailSystem" style="stroke: #A80036; stroke-width: 1.5;" width="110" x="212.5" y="330"/><ellipse cx="227.5" cy="346" fill="#B4A7E5" rx="11" ry="11" style="stroke: #A80036; stroke-width: 1.0;"/><path d="M228.4531,342.7813 L230.1719,342.7813 C230.5625,342.7813 230.75,342.75 230.875,342.6719 C231.1406,342.5156 231.2813,342.2344 231.2813,341.9375 C231.2813,341.6719 231.1719,341.4063 230.9375,341.2344 C230.7656,341.125 230.625,341.0938 230.1719,341.0938 L225.0313,341.0938 C224.5938,341.0938 224.4688,341.1094 224.3125,341.2031 C224.0625,341.3594 223.9063,341.6563 223.9063,341.9375 C223.9063,342.2188 224.0469,342.4688 224.2656,342.6406 C224.4219,342.75 224.6094,342.7813 225.0313,342.7813 L226.75,342.7813 L226.75,349.2969 L225.0313,349.2969 C224.5938,349.2969 224.4688,349.3125 224.3125,349.4219 C224.0625,349.5781 223.9063,349.8594 223.9063,350.1563 C223.9063,350.4063 224.0469,350.6719 224.2656,350.8281 C224.4219,350.9531 224.625,351 225.0313,351 L230.1719,351 C230.9219,351 231.2813,350.7188 231.2813,350.1563 C231.2813,349.875 231.1719,349.625 230.9375,349.4531 C230.7656,349.3281 230.625,349.2969 230.1719,349.2969 L228.4531,349.2969 L228.4531,342.7813 Z "/><text fill="#000000" font-family="sans-serif" font-size="12" font-style="italic" lengthAdjust="spacingAndGlyphs" textLength="78" x="241.5" y="350.1543">EmailSystem</text><line style="stroke: #A80036; stroke-width: 1.5;" x1="213.5" x2="321.5" y1="362" y2="362"/><line style="stroke: #A80036; stroke-width: 1.5;" x1="213.5" x2="321.5" y1="370" y2="370"/><!--MD5=[f3b2bf23ce11ffd5c4ce7c01892fe716]
class NotifyFreelancerUI--><rect fill="#FEFECE" filter="url(#f1anrzdjxgfdhl)" height="48" id="NotifyFreelancerUI" style="stroke: #A80036; stroke-width: 1.5;" width="143" x="32" y="6"/><ellipse cx="47" cy="22" fill="#ADD1B2" rx="11" ry="11" style="stroke: #A80036; stroke-width: 1.0;"/><path d="M49.3438,17.6719 C48.4063,17.2344 47.8125,17.0938 46.9375,17.0938 C44.3125,17.0938 42.3125,19.1719 42.3125,21.8906 L42.3125,23.0156 C42.3125,25.5938 44.4219,27.4844 47.3125,27.4844 C48.5313,27.4844 49.6875,27.1875 50.4375,26.6406 C51.0156,26.2344 51.3438,25.7813 51.3438,25.3906 C51.3438,24.9375 50.9531,24.5469 50.4844,24.5469 C50.2656,24.5469 50.0625,24.625 49.875,24.8125 C49.4219,25.2969 49.4219,25.2969 49.2344,25.3906 C48.8125,25.6563 48.125,25.7813 47.3594,25.7813 C45.3125,25.7813 44.0156,24.6875 44.0156,22.9844 L44.0156,21.8906 C44.0156,20.1094 45.2656,18.7969 47,18.7969 C47.5781,18.7969 48.1875,18.9531 48.6563,19.2031 C49.1406,19.4844 49.3125,19.7031 49.4063,20.1094 C49.4688,20.5156 49.5,20.6406 49.6406,20.7656 C49.7813,20.9063 50.0156,21.0156 50.2344,21.0156 C50.5,21.0156 50.7656,20.875 50.9375,20.6563 C51.0469,20.5 51.0781,20.3125 51.0781,19.8906 L51.0781,18.4688 C51.0781,18.0313 51.0625,17.9063 50.9688,17.75 C50.8125,17.4844 50.5313,17.3438 50.2344,17.3438 C49.9375,17.3438 49.7344,17.4375 49.5156,17.75 L49.3438,17.6719 Z "/><text fill="#000000" font-family="sans-serif" font-size="12" lengthAdjust="spacingAndGlyphs" textLength="111" x="61" y="26.1543">NotifyFreelancerUI</text><line style="stroke: #A80036; stroke-width: 1.5;" x1="33" x2="174" y1="38" y2="38"/><line style="stroke: #A80036; stroke-width: 1.5;" x1="33" x2="174" y1="46" y2="46"/><!--MD5=[ca1d69343b2d7dce0d8c820fa0be783a]
class ScheduledNotifyFreelancer--><rect fill="#FEFECE" filter="url(#f1anrzdjxgfdhl)" height="48" id="ScheduledNotifyFreelancer" style="stroke: #A80036; stroke-width: 1.5;" width="195" x="6" y="114"/><ellipse cx="21" cy="130" fill="#ADD1B2" rx="11" ry="11" style="stroke: #A80036; stroke-width: 1.0;"/><path d="M23.3438,125.6719 C22.4063,125.2344 21.8125,125.0938 20.9375,125.0938 C18.3125,125.0938 16.3125,127.1719 16.3125,129.8906 L16.3125,131.0156 C16.3125,133.5938 18.4219,135.4844 21.3125,135.4844 C22.5313,135.4844 23.6875,135.1875 24.4375,134.6406 C25.0156,134.2344 25.3438,133.7813 25.3438,133.3906 C25.3438,132.9375 24.9531,132.5469 24.4844,132.5469 C24.2656,132.5469 24.0625,132.625 23.875,132.8125 C23.4219,133.2969 23.4219,133.2969 23.2344,133.3906 C22.8125,133.6563 22.125,133.7813 21.3594,133.7813 C19.3125,133.7813 18.0156,132.6875 18.0156,130.9844 L18.0156,129.8906 C18.0156,128.1094 19.2656,126.7969 21,126.7969 C21.5781,126.7969 22.1875,126.9531 22.6563,127.2031 C23.1406,127.4844 23.3125,127.7031 23.4063,128.1094 C23.4688,128.5156 23.5,128.6406 23.6406,128.7656 C23.7813,128.9063 24.0156,129.0156 24.2344,129.0156 C24.5,129.0156 24.7656,128.875 24.9375,128.6563 C25.0469,128.5 25.0781,128.3125 25.0781,127.8906 L25.0781,126.4688 C25.0781,126.0313 25.0625,125.9063 24.9688,125.75 C24.8125,125.4844 24.5313,125.3438 24.2344,125.3438 C23.9375,125.3438 23.7344,125.4375 23.5156,125.75 L23.3438,125.6719 Z "/><text fill="#000000" font-family="sans-serif" font-size="12" lengthAdjust="spacingAndGlyphs" textLength="163" x="35" y="134.1543">ScheduledNotifyFreelancer</text><line style="stroke: #A80036; stroke-width: 1.5;" x1="7" x2="200" y1="146" y2="146"/><line style="stroke: #A80036; stroke-width: 1.5;" x1="7" x2="200" y1="154" y2="154"/><!--MD5=[d50dfca48933b6a05c8224eeb5e4176a]
class NotifyFreelancerDelayed--><rect fill="#FEFECE" filter="url(#f1anrzdjxgfdhl)" height="48" id="NotifyFreelancerDelayed" style="stroke: #A80036; stroke-width: 1.5;" width="181" x="13" y="222"/><ellipse cx="28" cy="238" fill="#ADD1B2" rx="11" ry="11" style="stroke: #A80036; stroke-width: 1.0;"/><path d="M30.3438,233.6719 C29.4063,233.2344 28.8125,233.0938 27.9375,233.0938 C25.3125,233.0938 23.3125,235.1719 23.3125,237.8906 L23.3125,239.0156 C23.3125,241.5938 25.4219,243.4844 28.3125,243.4844 C29.5313,243.4844 30.6875,243.1875 31.4375,242.6406 C32.0156,242.2344 32.3438,241.7813 32.3438,241.3906 C32.3438,240.9375 31.9531,240.5469 31.4844,240.5469 C31.2656,240.5469 31.0625,240.625 30.875,240.8125 C30.4219,241.2969 30.4219,241.2969 30.2344,241.3906 C29.8125,241.6563 29.125,241.7813 28.3594,241.7813 C26.3125,241.7813 25.0156,240.6875 25.0156,238.9844 L25.0156,237.8906 C25.0156,236.1094 26.2656,234.7969 28,234.7969 C28.5781,234.7969 29.1875,234.9531 29.6563,235.2031 C30.1406,235.4844 30.3125,235.7031 30.4063,236.1094 C30.4688,236.5156 30.5,236.6406 30.6406,236.7656 C30.7813,236.9063 31.0156,237.0156 31.2344,237.0156 C31.5,237.0156 31.7656,236.875 31.9375,236.6563 C32.0469,236.5 32.0781,236.3125 32.0781,235.8906 L32.0781,234.4688 C32.0781,234.0313 32.0625,233.9063 31.9688,233.75 C31.8125,233.4844 31.5313,233.3438 31.2344,233.3438 C30.9375,233.3438 30.7344,233.4375 30.5156,233.75 L30.3438,233.6719 Z "/><text fill="#000000" font-family="sans-serif" font-size="12" lengthAdjust="spacingAndGlyphs" textLength="149" x="42" y="242.1543">NotifyFreelancerDelayed</text><line style="stroke: #A80036; stroke-width: 1.5;" x1="14" x2="193" y1="254" y2="254"/><line style="stroke: #A80036; stroke-width: 1.5;" x1="14" x2="193" y1="262" y2="262"/><!--MD5=[52bbee025a435258c6397b17d94a5a49]
class FreelancerRegister--><rect fill="#FEFECE" filter="url(#f1anrzdjxgfdhl)" height="48" id="FreelancerRegister" style="stroke: #A80036; stroke-width: 1.5;" width="147" x="30" y="330"/><ellipse cx="45" cy="346" fill="#ADD1B2" rx="11" ry="11" style="stroke: #A80036; stroke-width: 1.0;"/><path d="M47.3438,341.6719 C46.4063,341.2344 45.8125,341.0938 44.9375,341.0938 C42.3125,341.0938 40.3125,343.1719 40.3125,345.8906 L40.3125,347.0156 C40.3125,349.5938 42.4219,351.4844 45.3125,351.4844 C46.5313,351.4844 47.6875,351.1875 48.4375,350.6406 C49.0156,350.2344 49.3438,349.7813 49.3438,349.3906 C49.3438,348.9375 48.9531,348.5469 48.4844,348.5469 C48.2656,348.5469 48.0625,348.625 47.875,348.8125 C47.4219,349.2969 47.4219,349.2969 47.2344,349.3906 C46.8125,349.6563 46.125,349.7813 45.3594,349.7813 C43.3125,349.7813 42.0156,348.6875 42.0156,346.9844 L42.0156,345.8906 C42.0156,344.1094 43.2656,342.7969 45,342.7969 C45.5781,342.7969 46.1875,342.9531 46.6563,343.2031 C47.1406,343.4844 47.3125,343.7031 47.4063,344.1094 C47.4688,344.5156 47.5,344.6406 47.6406,344.7656 C47.7813,344.9063 48.0156,345.0156 48.2344,345.0156 C48.5,345.0156 48.7656,344.875 48.9375,344.6563 C49.0469,344.5 49.0781,344.3125 49.0781,343.8906 L49.0781,342.4688 C49.0781,342.0313 49.0625,341.9063 48.9688,341.75 C48.8125,341.4844 48.5313,341.3438 48.2344,341.3438 C47.9375,341.3438 47.7344,341.4375 47.5156,341.75 L47.3438,341.6719 Z "/><text fill="#000000" font-family="sans-serif" font-size="12" lengthAdjust="spacingAndGlyphs" textLength="115" x="59" y="350.1543">FreelancerRegister</text><line style="stroke: #A80036; stroke-width: 1.5;" x1="31" x2="176" y1="362" y2="362"/><line style="stroke: #A80036; stroke-width: 1.5;" x1="31" x2="176" y1="370" y2="370"/><!--MD5=[99b8db98afdc2c8404e39242ef4c1e65]
class Platform--><rect fill="#FEFECE" filter="url(#f1anrzdjxgfdhl)" height="48" id="Platform" style="stroke: #A80036; stroke-width: 1.5;" width="80" x="309.5" y="222"/><ellipse cx="324.5" cy="238" fill="#ADD1B2" rx="11" ry="11" style="stroke: #A80036; stroke-width: 1.0;"/><path d="M326.8438,233.6719 C325.9063,233.2344 325.3125,233.0938 324.4375,233.0938 C321.8125,233.0938 319.8125,235.1719 319.8125,237.8906 L319.8125,239.0156 C319.8125,241.5938 321.9219,243.4844 324.8125,243.4844 C326.0313,243.4844 327.1875,243.1875 327.9375,242.6406 C328.5156,242.2344 328.8438,241.7813 328.8438,241.3906 C328.8438,240.9375 328.4531,240.5469 327.9844,240.5469 C327.7656,240.5469 327.5625,240.625 327.375,240.8125 C326.9219,241.2969 326.9219,241.2969 326.7344,241.3906 C326.3125,241.6563 325.625,241.7813 324.8594,241.7813 C322.8125,241.7813 321.5156,240.6875 321.5156,238.9844 L321.5156,237.8906 C321.5156,236.1094 322.7656,234.7969 324.5,234.7969 C325.0781,234.7969 325.6875,234.9531 326.1563,235.2031 C326.6406,235.4844 326.8125,235.7031 326.9063,236.1094 C326.9688,236.5156 327,236.6406 327.1406,236.7656 C327.2813,236.9063 327.5156,237.0156 327.7344,237.0156 C328,237.0156 328.2656,236.875 328.4375,236.6563 C328.5469,236.5 328.5781,236.3125 328.5781,235.8906 L328.5781,234.4688 C328.5781,234.0313 328.5625,233.9063 328.4688,233.75 C328.3125,233.4844 328.0313,233.3438 327.7344,233.3438 C327.4375,233.3438 327.2344,233.4375 327.0156,233.75 L326.8438,233.6719 Z "/><text fill="#000000" font-family="sans-serif" font-size="12" lengthAdjust="spacingAndGlyphs" textLength="48" x="338.5" y="242.1543">Platform</text><line style="stroke: #A80036; stroke-width: 1.5;" x1="310.5" x2="388.5" y1="254" y2="254"/><line style="stroke: #A80036; stroke-width: 1.5;" x1="310.5" x2="388.5" y1="262" y2="262"/><!--MD5=[ed74c70821a0645f4af1c19c1cbc911b]
class CurrencyConverter--><rect fill="#FEFECE" filter="url(#f1anrzdjxgfdhl)" height="48" id="CurrencyConverter" style="stroke: #A80036; stroke-width: 1.5;" width="146" x="357.5" y="330"/><ellipse cx="372.5" cy="346" fill="#ADD1B2" rx="11" ry="11" style="stroke: #A80036; stroke-width: 1.0;"/><path d="M374.8438,341.6719 C373.9063,341.2344 373.3125,341.0938 372.4375,341.0938 C369.8125,341.0938 367.8125,343.1719 367.8125,345.8906 L367.8125,347.0156 C367.8125,349.5938 369.9219,351.4844 372.8125,351.4844 C374.0313,351.4844 375.1875,351.1875 375.9375,350.6406 C376.5156,350.2344 376.8438,349.7813 376.8438,349.3906 C376.8438,348.9375 376.4531,348.5469 375.9844,348.5469 C375.7656,348.5469 375.5625,348.625 375.375,348.8125 C374.9219,349.2969 374.9219,349.2969 374.7344,349.3906 C374.3125,349.6563 373.625,349.7813 372.8594,349.7813 C370.8125,349.7813 369.5156,348.6875 369.5156,346.9844 L369.5156,345.8906 C369.5156,344.1094 370.7656,342.7969 372.5,342.7969 C373.0781,342.7969 373.6875,342.9531 374.1563,343.2031 C374.6406,343.4844 374.8125,343.7031 374.9063,344.1094 C374.9688,344.5156 375,344.6406 375.1406,344.7656 C375.2813,344.9063 375.5156,345.0156 375.7344,345.0156 C376,345.0156 376.2656,344.875 376.4375,344.6563 C376.5469,344.5 376.5781,344.3125 376.5781,343.8906 L376.5781,342.4688 C376.5781,342.0313 376.5625,341.9063 376.4688,341.75 C376.3125,341.4844 376.0313,341.3438 375.7344,341.3438 C375.4375,341.3438 375.2344,341.4375 375.0156,341.75 L374.8438,341.6719 Z "/><text fill="#000000" font-family="sans-serif" font-size="12" lengthAdjust="spacingAndGlyphs" textLength="114" x="386.5" y="350.1543">CurrencyConverter</text><line style="stroke: #A80036; stroke-width: 1.5;" x1="358.5" x2="502.5" y1="362" y2="362"/><line style="stroke: #A80036; stroke-width: 1.5;" x1="358.5" x2="502.5" y1="370" y2="370"/><!--MD5=[085c157399186ac5e3270746cbaa2af0]
class OrganizationRegistry--><rect fill="#FEFECE" filter="url(#f1anrzdjxgfdhl)" height="48" id="OrganizationRegistry" style="stroke: #A80036; stroke-width: 1.5;" width="157" x="539" y="330"/><ellipse cx="554" cy="346" fill="#ADD1B2" rx="11" ry="11" style="stroke: #A80036; stroke-width: 1.0;"/><path d="M556.3438,341.6719 C555.4063,341.2344 554.8125,341.0938 553.9375,341.0938 C551.3125,341.0938 549.3125,343.1719 549.3125,345.8906 L549.3125,347.0156 C549.3125,349.5938 551.4219,351.4844 554.3125,351.4844 C555.5313,351.4844 556.6875,351.1875 557.4375,350.6406 C558.0156,350.2344 558.3438,349.7813 558.3438,349.3906 C558.3438,348.9375 557.9531,348.5469 557.4844,348.5469 C557.2656,348.5469 557.0625,348.625 556.875,348.8125 C556.4219,349.2969 556.4219,349.2969 556.2344,349.3906 C555.8125,349.6563 555.125,349.7813 554.3594,349.7813 C552.3125,349.7813 551.0156,348.6875 551.0156,346.9844 L551.0156,345.8906 C551.0156,344.1094 552.2656,342.7969 554,342.7969 C554.5781,342.7969 555.1875,342.9531 555.6563,343.2031 C556.1406,343.4844 556.3125,343.7031 556.4063,344.1094 C556.4688,344.5156 556.5,344.6406 556.6406,344.7656 C556.7813,344.9063 557.0156,345.0156 557.2344,345.0156 C557.5,345.0156 557.7656,344.875 557.9375,344.6563 C558.0469,344.5 558.0781,344.3125 558.0781,343.8906 L558.0781,342.4688 C558.0781,342.0313 558.0625,341.9063 557.9688,341.75 C557.8125,341.4844 557.5313,341.3438 557.2344,341.3438 C556.9375,341.3438 556.7344,341.4375 556.5156,341.75 L556.3438,341.6719 Z "/><text fill="#000000" font-family="sans-serif" font-size="12" lengthAdjust="spacingAndGlyphs" textLength="125" x="568" y="350.1543">OrganizationRegistry</text><line style="stroke: #A80036; stroke-width: 1.5;" x1="540" x2="695" y1="362" y2="362"/><line style="stroke: #A80036; stroke-width: 1.5;" x1="540" x2="695" y1="370" y2="370"/><!--MD5=[86c7c362de55a38b660185a1328fe18d]
class Organization--><rect fill="#FEFECE" filter="url(#f1anrzdjxgfdhl)" height="48" id="Organization" style="stroke: #A80036; stroke-width: 1.5;" width="108" x="563.5" y="438"/><ellipse cx="578.5" cy="454" fill="#ADD1B2" rx="11" ry="11" style="stroke: #A80036; stroke-width: 1.0;"/><path d="M580.8438,449.6719 C579.9063,449.2344 579.3125,449.0938 578.4375,449.0938 C575.8125,449.0938 573.8125,451.1719 573.8125,453.8906 L573.8125,455.0156 C573.8125,457.5938 575.9219,459.4844 578.8125,459.4844 C580.0313,459.4844 581.1875,459.1875 581.9375,458.6406 C582.5156,458.2344 582.8438,457.7813 582.8438,457.3906 C582.8438,456.9375 582.4531,456.5469 581.9844,456.5469 C581.7656,456.5469 581.5625,456.625 581.375,456.8125 C580.9219,457.2969 580.9219,457.2969 580.7344,457.3906 C580.3125,457.6563 579.625,457.7813 578.8594,457.7813 C576.8125,457.7813 575.5156,456.6875 575.5156,454.9844 L575.5156,453.8906 C575.5156,452.1094 576.7656,450.7969 578.5,450.7969 C579.0781,450.7969 579.6875,450.9531 580.1563,451.2031 C580.6406,451.4844 580.8125,451.7031 580.9063,452.1094 C580.9688,452.5156 581,452.6406 581.1406,452.7656 C581.2813,452.9063 581.5156,453.0156 581.7344,453.0156 C582,453.0156 582.2656,452.875 582.4375,452.6563 C582.5469,452.5 582.5781,452.3125 582.5781,451.8906 L582.5781,450.4688 C582.5781,450.0313 582.5625,449.9063 582.4688,449.75 C582.3125,449.4844 582.0313,449.3438 581.7344,449.3438 C581.4375,449.3438 581.2344,449.4375 581.0156,449.75 L580.8438,449.6719 Z "/><text fill="#000000" font-family="sans-serif" font-size="12" lengthAdjust="spacingAndGlyphs" textLength="76" x="592.5" y="458.1543">Organization</text><line style="stroke: #A80036; stroke-width: 1.5;" x1="564.5" x2="670.5" y1="470" y2="470"/><line style="stroke: #A80036; stroke-width: 1.5;" x1="564.5" x2="670.5" y1="478" y2="478"/><!--MD5=[4c7a4844927343388be36e4ab2f98062]
class TransactionList--><rect fill="#FEFECE" filter="url(#f1anrzdjxgfdhl)" height="48" id="TransactionList" style="stroke: #A80036; stroke-width: 1.5;" width="121" x="557" y="546"/><ellipse cx="572" cy="562" fill="#ADD1B2" rx="11" ry="11" style="stroke: #A80036; stroke-width: 1.0;"/><path d="M574.3438,557.6719 C573.4063,557.2344 572.8125,557.0938 571.9375,557.0938 C569.3125,557.0938 567.3125,559.1719 567.3125,561.8906 L567.3125,563.0156 C567.3125,565.5938 569.4219,567.4844 572.3125,567.4844 C573.5313,567.4844 574.6875,567.1875 575.4375,566.6406 C576.0156,566.2344 576.3438,565.7813 576.3438,565.3906 C576.3438,564.9375 575.9531,564.5469 575.4844,564.5469 C575.2656,564.5469 575.0625,564.625 574.875,564.8125 C574.4219,565.2969 574.4219,565.2969 574.2344,565.3906 C573.8125,565.6563 573.125,565.7813 572.3594,565.7813 C570.3125,565.7813 569.0156,564.6875 569.0156,562.9844 L569.0156,561.8906 C569.0156,560.1094 570.2656,558.7969 572,558.7969 C572.5781,558.7969 573.1875,558.9531 573.6563,559.2031 C574.1406,559.4844 574.3125,559.7031 574.4063,560.1094 C574.4688,560.5156 574.5,560.6406 574.6406,560.7656 C574.7813,560.9063 575.0156,561.0156 575.2344,561.0156 C575.5,561.0156 575.7656,560.875 575.9375,560.6563 C576.0469,560.5 576.0781,560.3125 576.0781,559.8906 L576.0781,558.4688 C576.0781,558.0313 576.0625,557.9063 575.9688,557.75 C575.8125,557.4844 575.5313,557.3438 575.2344,557.3438 C574.9375,557.3438 574.7344,557.4375 574.5156,557.75 L574.3438,557.6719 Z "/><text fill="#000000" font-family="sans-serif" font-size="12" lengthAdjust="spacingAndGlyphs" textLength="89" x="586" y="566.1543">TransactionList</text><line style="stroke: #A80036; stroke-width: 1.5;" x1="558" x2="677" y1="578" y2="578"/><line style="stroke: #A80036; stroke-width: 1.5;" x1="558" x2="677" y1="586" y2="586"/><!--MD5=[4555bb1b0911a5adf28ce6dbe60fed2e]
class Transaction--><rect fill="#FEFECE" filter="url(#f1anrzdjxgfdhl)" height="48" id="Transaction" style="stroke: #A80036; stroke-width: 1.5;" width="101" x="567" y="654"/><ellipse cx="582" cy="670" fill="#ADD1B2" rx="11" ry="11" style="stroke: #A80036; stroke-width: 1.0;"/><path d="M584.3438,665.6719 C583.4063,665.2344 582.8125,665.0938 581.9375,665.0938 C579.3125,665.0938 577.3125,667.1719 577.3125,669.8906 L577.3125,671.0156 C577.3125,673.5938 579.4219,675.4844 582.3125,675.4844 C583.5313,675.4844 584.6875,675.1875 585.4375,674.6406 C586.0156,674.2344 586.3438,673.7813 586.3438,673.3906 C586.3438,672.9375 585.9531,672.5469 585.4844,672.5469 C585.2656,672.5469 585.0625,672.625 584.875,672.8125 C584.4219,673.2969 584.4219,673.2969 584.2344,673.3906 C583.8125,673.6563 583.125,673.7813 582.3594,673.7813 C580.3125,673.7813 579.0156,672.6875 579.0156,670.9844 L579.0156,669.8906 C579.0156,668.1094 580.2656,666.7969 582,666.7969 C582.5781,666.7969 583.1875,666.9531 583.6563,667.2031 C584.1406,667.4844 584.3125,667.7031 584.4063,668.1094 C584.4688,668.5156 584.5,668.6406 584.6406,668.7656 C584.7813,668.9063 585.0156,669.0156 585.2344,669.0156 C585.5,669.0156 585.7656,668.875 585.9375,668.6563 C586.0469,668.5 586.0781,668.3125 586.0781,667.8906 L586.0781,666.4688 C586.0781,666.0313 586.0625,665.9063 585.9688,665.75 C585.8125,665.4844 585.5313,665.3438 585.2344,665.3438 C584.9375,665.3438 584.7344,665.4375 584.5156,665.75 L584.3438,665.6719 Z "/><text fill="#000000" font-family="sans-serif" font-size="12" lengthAdjust="spacingAndGlyphs" textLength="69" x="596" y="674.1543">Transaction</text><line style="stroke: #A80036; stroke-width: 1.5;" x1="568" x2="667" y1="686" y2="686"/><line style="stroke: #A80036; stroke-width: 1.5;" x1="568" x2="667" y1="694" y2="694"/><!--MD5=[1f687b5315377fe49fca59b457947463]
class Freelancer--><rect fill="#FEFECE" filter="url(#f1anrzdjxgfdhl)" height="48" id="Freelancer" style="stroke: #A80036; stroke-width: 1.5;" width="97" x="569" y="762"/><ellipse cx="584" cy="778" fill="#ADD1B2" rx="11" ry="11" style="stroke: #A80036; stroke-width: 1.0;"/><path d="M586.3438,773.6719 C585.4063,773.2344 584.8125,773.0938 583.9375,773.0938 C581.3125,773.0938 579.3125,775.1719 579.3125,777.8906 L579.3125,779.0156 C579.3125,781.5938 581.4219,783.4844 584.3125,783.4844 C585.5313,783.4844 586.6875,783.1875 587.4375,782.6406 C588.0156,782.2344 588.3438,781.7813 588.3438,781.3906 C588.3438,780.9375 587.9531,780.5469 587.4844,780.5469 C587.2656,780.5469 587.0625,780.625 586.875,780.8125 C586.4219,781.2969 586.4219,781.2969 586.2344,781.3906 C585.8125,781.6563 585.125,781.7813 584.3594,781.7813 C582.3125,781.7813 581.0156,780.6875 581.0156,778.9844 L581.0156,777.8906 C581.0156,776.1094 582.2656,774.7969 584,774.7969 C584.5781,774.7969 585.1875,774.9531 585.6563,775.2031 C586.1406,775.4844 586.3125,775.7031 586.4063,776.1094 C586.4688,776.5156 586.5,776.6406 586.6406,776.7656 C586.7813,776.9063 587.0156,777.0156 587.2344,777.0156 C587.5,777.0156 587.7656,776.875 587.9375,776.6563 C588.0469,776.5 588.0781,776.3125 588.0781,775.8906 L588.0781,774.4688 C588.0781,774.0313 588.0625,773.9063 587.9688,773.75 C587.8125,773.4844 587.5313,773.3438 587.2344,773.3438 C586.9375,773.3438 586.7344,773.4375 586.5156,773.75 L586.3438,773.6719 Z "/><text fill="#000000" font-family="sans-serif" font-size="12" lengthAdjust="spacingAndGlyphs" textLength="65" x="598" y="782.1543">Freelancer</text><line style="stroke: #A80036; stroke-width: 1.5;" x1="570" x2="665" y1="794" y2="794"/><line style="stroke: #A80036; stroke-width: 1.5;" x1="570" x2="665" y1="802" y2="802"/><!--MD5=[dc4ac84f8953ac5855f74d9fabde062d]
link NotifyFreelancerUI to ScheduledNotifyFreelancer--><path d="M103.5,54 C103.5,70.003 103.5,91.446 103.5,108.528 " fill="none" id="NotifyFreelancerUI-&gt;ScheduledNotifyFreelancer" style="stroke: #A80036; stroke-width: 1.0;"/><polygon fill="#A80036" points="103.5,113.678,107.5,104.678,103.5,108.678,99.5,104.678,103.5,113.678" style="stroke: #A80036; stroke-width: 1.0;"/><!--MD5=[14ec37e4efc8e51943c4c7efeedac8d4]
link ScheduledNotifyFreelancer to NotifyFreelancerDelayed--><path d="M103.5,162 C103.5,178.003 103.5,199.446 103.5,216.528 " fill="none" id="ScheduledNotifyFreelancer-&gt;NotifyFreelancerDelayed" style="stroke: #A80036; stroke-width: 1.0;"/><polygon fill="#A80036" points="103.5,221.678,107.5,212.678,103.5,216.678,99.5,212.678,103.5,221.678" style="stroke: #A80036; stroke-width: 1.0;"/><!--MD5=[3da6b0fd7bd677b9e3b7064939289217]
link NotifyFreelancerDelayed to FreelancerRegister--><path d="M103.5,270 C103.5,286.003 103.5,307.446 103.5,324.528 " fill="none" id="NotifyFreelancerDelayed-&gt;FreelancerRegister" style="stroke: #A80036; stroke-width: 1.0;"/><polygon fill="#A80036" points="103.5,329.678,107.5,320.678,103.5,324.678,99.5,320.678,103.5,329.678" style="stroke: #A80036; stroke-width: 1.0;"/><!--MD5=[3a5fc800ce09abfb410ae6739d78714c]
link Platform to EmailSystem--><path d="M331.707,270 C319.114,286.279 302.167,308.187 288.845,325.408 " fill="none" id="Platform-&gt;EmailSystem" style="stroke: #A80036; stroke-width: 1.0;"/><polygon fill="#A80036" points="285.541,329.678,294.2106,325.0048,288.5994,325.7225,287.8817,320.1113,285.541,329.678" style="stroke: #A80036; stroke-width: 1.0;"/><!--MD5=[fba7b6a92ebfada12ab2e34a64f6ce82]
link Platform to CurrencyConverter--><path d="M367.076,270 C379.515,286.279 396.256,308.187 409.415,325.408 " fill="none" id="Platform-&gt;CurrencyConverter" style="stroke: #A80036; stroke-width: 1.0;"/><polygon fill="#A80036" points="412.679,329.678,410.393,320.0981,409.6432,325.7051,404.0363,324.9553,412.679,329.678" style="stroke: #A80036; stroke-width: 1.0;"/><!--MD5=[a4ac9eb7bedd5751c2e4e92a6769c825]
link Platform to OrganizationRegistry--><path d="M389.622,262.869 C433.191,280.102 503.37,307.859 554.347,328.022 " fill="none" id="Platform-&gt;OrganizationRegistry" style="stroke: #A80036; stroke-width: 1.0;"/><polygon fill="#A80036" points="559.219,329.949,552.3202,322.92,554.5693,328.1105,549.3787,330.3595,559.219,329.949" style="stroke: #A80036; stroke-width: 1.0;"/><!--MD5=[31b160c41b40f1f198969df3eb5fcc67]
link Platform to FreelancerRegister--><path d="M309.428,264.267 C269.282,281.565 207.074,308.37 161.532,327.994 " fill="none" id="Platform-&gt;FreelancerRegister" style="stroke: #A80036; stroke-width: 1.0;"/><polygon fill="#A80036" points="156.901,329.99,166.7492,330.1017,161.4928,328.0113,163.5833,322.7548,156.901,329.99" style="stroke: #A80036; stroke-width: 1.0;"/><!--MD5=[ad5c87a1752d97ae4ad873f800bb8e80]
link OrganizationRegistry to Organization--><path d="M617.5,378 C617.5,394.003 617.5,415.446 617.5,432.528 " fill="none" id="OrganizationRegistry-&gt;Organization" style="stroke: #A80036; stroke-width: 1.0;"/><polygon fill="#A80036" points="617.5,437.678,621.5,428.678,617.5,432.678,613.5,428.678,617.5,437.678" style="stroke: #A80036; stroke-width: 1.0;"/><!--MD5=[84a38da9c3d99217a1c685a54ec6dcdf]
link Organization to TransactionList--><path d="M617.5,486 C617.5,502.003 617.5,523.446 617.5,540.528 " fill="none" id="Organization-&gt;TransactionList" style="stroke: #A80036; stroke-width: 1.0;"/><polygon fill="#A80036" points="617.5,545.678,621.5,536.678,617.5,540.678,613.5,536.678,617.5,545.678" style="stroke: #A80036; stroke-width: 1.0;"/><!--MD5=[545e25a30d1ad2740d495af8a10c5351]
link TransactionList to Transaction--><path d="M617.5,594 C617.5,610.003 617.5,631.446 617.5,648.528 " fill="none" id="TransactionList-&gt;Transaction" style="stroke: #A80036; stroke-width: 1.0;"/><polygon fill="#A80036" points="617.5,653.678,621.5,644.678,617.5,648.678,613.5,644.678,617.5,653.678" style="stroke: #A80036; stroke-width: 1.0;"/><!--MD5=[542f32193441b56ea302115ed1249c3b]
link Transaction to Freelancer--><path d="M617.5,702 C617.5,718.003 617.5,739.4461 617.5,756.528 " fill="none" id="Transaction-&gt;Freelancer" style="stroke: #A80036; stroke-width: 1.0;"/><polygon fill="#A80036" points="617.5,761.6784,621.5,752.6784,617.5,756.6784,613.5,752.6784,617.5,761.6784" style="stroke: #A80036; stroke-width: 1.0;"/><!--MD5=[cc5bb114ae880fa758d48944f3993834]
@startuml
skinparam classAttributeIconSize 0



Interface EmailSystem  {
}

NotifyFreelancerUI - ->ScheduledNotifyFreelancer
ScheduledNotifyFreelancer  - ->  NotifyFreelancerDelayed
NotifyFreelancerDelayed - -> FreelancerRegister

Platform - -> EmailSystem
Platform - -> CurrencyConverter
Platform - -> OrganizationRegistry
Platform - -> FreelancerRegister


OrganizationRegistry  - ->  Organization
Organization  - ->  TransactionList

TransactionList  - ->  Transaction
Transaction  - ->  Freelancer
@enduml

PlantUML version 1.2020.12(Sat Jun 06 10:54:15 UTC 2020)
(GPL source distribution)
Java Runtime: Java(TM) SE Runtime Environment
JVM: Java HotSpot(TM) 64-Bit Server VM
Default Encoding: UTF-8
Language: en
Country: US
--></g></svg>